<svg width="1295" height="808" viewBox="0 0 1295 808" fill="none" xmlns="http://www.w3.org/2000/svg">
<path d="M-20.3246 261.02C-38.1871 268.29 -48.6344 290.246 -43.582 309.798L-35.2369 342.093C-29.5574 364.072 -9.77986 371.086 8.71567 357.542C28.1247 343.304 39.1652 312.806 33.1895 289.68C26.7086 264.6 2.60952 251.7 -20.3246 261.02Z" stroke="#83A15D" stroke-width="4.64722" stroke-linecap="round" stroke-linejoin="round"/>
<path d="M42.5044 276.415C44.8948 285.667 53.5468 289.746 61.8291 285.526C70.1114 281.305 74.8878 270.383 72.4974 261.132C70.107 251.879 61.455 247.801 53.1726 252.021C44.8903 256.241 40.1139 267.163 42.5044 276.415Z" stroke="#83A15D" stroke-width="4.64722" stroke-linecap="round" stroke-linejoin="round"/>
<path d="M49.0024 327.688C50.9148 335.09 57.8363 338.352 64.4622 334.976C71.0881 331.6 74.9092 322.863 72.9968 315.461C71.0846 308.06 64.1629 304.796 57.5371 308.173C50.9112 311.549 47.0902 320.287 49.0024 327.688Z" stroke="#83A15D" stroke-width="4.64722" stroke-linecap="round" stroke-linejoin="round"/>
<path d="M33.4023 364.66C34.8364 370.211 40.0278 372.658 44.9971 370.126C49.9669 367.594 52.8325 361.041 51.3984 355.49C49.9642 349.939 44.7731 347.491 39.8032 350.023C34.834 352.556 31.9681 359.109 33.4023 364.66Z" stroke="#83A15D" stroke-width="4.64722" stroke-linecap="round" stroke-linejoin="round"/>
<path d="M11.7232 239.341C13.6355 246.743 20.5574 250.006 27.1833 246.63C33.8091 243.253 37.6302 234.516 35.7179 227.114C33.8056 219.713 26.884 216.45 20.2581 219.826C13.6323 223.202 9.81088 231.94 11.7232 239.341Z" stroke="#83A15D" stroke-width="4.64722" stroke-linecap="round" stroke-linejoin="round"/>
<path d="M95.5583 538.531C105.515 544.158 115.524 539.886 117.817 529.065L121.603 511.191C124.18 499.026 116.716 486.363 104.984 483.106C92.6668 479.7 80.3647 487.331 77.6534 500.13C74.713 514.011 82.7777 531.302 95.5583 538.531Z" stroke="#83A15D" stroke-width="4.64722" stroke-linecap="round" stroke-linejoin="round"/>
<path d="M68.3636 501.098C69.4535 495.953 66.4124 489.951 61.5709 487.694C56.7295 485.437 51.9211 487.778 50.8311 492.924C49.7411 498.069 52.7823 504.071 57.6238 506.328C62.4652 508.585 67.2736 506.244 68.3636 501.098Z" stroke="#83A15D" stroke-width="4.64722" stroke-linecap="round" stroke-linejoin="round"/>
<path d="M77.9761 477.249C78.8481 473.132 76.4152 468.331 72.542 466.525C68.6689 464.719 64.8222 466.592 63.9502 470.709C63.0783 474.825 65.5111 479.627 69.3843 481.432C73.2575 483.238 77.1042 481.365 77.9761 477.249Z" stroke="#83A15D" stroke-width="4.64722" stroke-linecap="round" stroke-linejoin="round"/>
<path d="M94.778 469.724C95.4319 466.637 93.6072 463.036 90.7024 461.681C87.7973 460.327 84.9123 461.732 84.2583 464.819C83.6044 467.907 85.429 471.507 88.3341 472.862C91.2389 474.216 94.124 472.811 94.778 469.724Z" stroke="#83A15D" stroke-width="4.64722" stroke-linecap="round" stroke-linejoin="round"/>
<path d="M74.2142 530.773C75.0862 526.656 72.6531 521.855 68.7799 520.049C64.9068 518.244 61.0601 520.117 60.1881 524.233C59.3161 528.35 61.7491 533.151 65.6222 534.957C69.4954 536.762 73.3422 534.889 74.2142 530.773Z" stroke="#83A15D" stroke-width="4.64722" stroke-linecap="round" stroke-linejoin="round"/>
<path d="M93.6938 758.311C102.783 775.32 125.706 783.427 144.627 776.368L175.878 764.708C197.147 756.773 202.065 736.373 186.67 719.387C170.49 701.564 139.009 693.757 116.631 702.106C92.3608 711.161 82.0385 736.471 93.6938 758.311Z" stroke="#83A15D" stroke-width="4.64722" stroke-linecap="round" stroke-linejoin="round"/>
<path d="M102.468 694.222C111.421 690.882 114.578 681.852 109.519 674.054C104.46 666.256 93.1003 662.641 84.1473 665.981C75.194 669.321 72.0374 678.351 77.0967 686.149C82.1559 693.947 93.5152 697.562 102.468 694.222Z" stroke="#83A15D" stroke-width="4.64722" stroke-linecap="round" stroke-linejoin="round"/>
<path d="M152.787 682.424C159.949 679.752 162.474 672.529 158.427 666.29C154.38 660.052 145.292 657.16 138.13 659.832C130.968 662.504 128.442 669.728 132.489 675.966C136.537 682.205 145.625 685.096 152.787 682.424Z" stroke="#83A15D" stroke-width="4.64722" stroke-linecap="round" stroke-linejoin="round"/>
<path d="M191.181 694.093C196.553 692.089 198.447 686.672 195.412 681.993C192.376 677.313 185.56 675.145 180.188 677.149C174.817 679.153 172.923 684.571 175.958 689.25C178.994 693.929 185.81 696.097 191.181 694.093Z" stroke="#83A15D" stroke-width="4.64722" stroke-linecap="round" stroke-linejoin="round"/>
<path d="M68.7984 728.693C75.9609 726.021 78.486 718.797 74.4386 712.558C70.3912 706.32 61.3038 703.428 54.1413 706.1C46.9789 708.772 44.4536 715.996 48.501 722.235C52.5484 728.473 61.636 731.365 68.7984 728.693Z" stroke="#83A15D" stroke-width="4.64722" stroke-linecap="round" stroke-linejoin="round"/>
<path d="M297.973 184.907C307.09 178.002 307.143 167.12 298.121 160.72L283.219 150.149C273.077 142.955 258.491 144.777 250.845 154.253C242.829 164.206 244.948 178.526 255.619 186.096C267.192 194.305 286.264 193.767 297.973 184.907Z" stroke="#83A15D" stroke-width="4.64722" stroke-linecap="round" stroke-linejoin="round"/>
<path d="M252.82 195.006C248.53 191.963 241.814 192.372 237.82 195.919C233.827 199.467 234.067 204.81 238.357 207.853C242.647 210.896 249.362 210.487 253.356 206.94C257.35 203.392 257.11 198.05 252.82 195.006Z" stroke="#83A15D" stroke-width="4.64722" stroke-linecap="round" stroke-linejoin="round"/>
<path d="M234.746 176.716C231.314 174.281 225.942 174.608 222.747 177.446C219.552 180.284 219.744 184.558 223.176 186.993C226.608 189.427 231.98 189.1 235.175 186.262C238.371 183.424 238.178 179.15 234.746 176.716Z" stroke="#83A15D" stroke-width="4.64722" stroke-linecap="round" stroke-linejoin="round"/>
<path d="M234.51 158.307C231.936 156.482 227.907 156.727 225.511 158.855C223.114 160.984 223.258 164.19 225.832 166.015C228.406 167.841 232.436 167.596 234.832 165.468C237.228 163.339 237.084 160.133 234.51 158.307Z" stroke="#83A15D" stroke-width="4.64722" stroke-linecap="round" stroke-linejoin="round"/>
<path d="M282.379 201.417C278.946 198.983 273.574 199.31 270.379 202.148C267.184 204.986 267.376 209.26 270.808 211.695C274.24 214.129 279.612 213.802 282.807 210.964C286.002 208.126 285.811 203.852 282.379 201.417Z" stroke="#83A15D" stroke-width="4.64722" stroke-linecap="round" stroke-linejoin="round"/>
<path d="M354.42 700.388C365.183 705.057 378.86 700.785 384.826 690.917L394.68 674.618C401.386 663.526 395.749 652.398 382.096 649.944C367.758 647.378 350.262 654.779 343.206 666.45C335.553 679.108 340.606 694.388 354.42 700.388Z" stroke="#83A15D" stroke-width="4.64722" stroke-linecap="round" stroke-linejoin="round"/>
<path d="M328.682 665.579C331.542 660.852 329.47 655.52 324.055 653.668C318.64 651.817 311.931 654.147 309.071 658.874C306.211 663.6 308.283 668.933 313.698 670.784C319.113 672.636 325.822 670.305 328.682 665.579Z" stroke="#83A15D" stroke-width="4.64722" stroke-linecap="round" stroke-linejoin="round"/>
<path d="M346.52 645.071C348.808 641.29 347.151 637.024 342.819 635.543C338.486 634.062 333.12 635.926 330.832 639.707C328.544 643.488 330.201 647.754 334.533 649.236C338.865 650.717 344.232 648.852 346.52 645.071Z" stroke="#83A15D" stroke-width="4.64722" stroke-linecap="round" stroke-linejoin="round"/>
<path d="M370.031 638.985C371.747 636.149 370.504 632.949 367.255 631.838C364.005 630.727 359.98 632.126 358.265 634.962C356.549 637.797 357.791 640.997 361.041 642.108C364.29 643.219 368.315 641.82 370.031 638.985Z" stroke="#83A15D" stroke-width="4.64722" stroke-linecap="round" stroke-linejoin="round"/>
<path d="M329.788 691.705C332.076 687.924 330.418 683.658 326.086 682.177C321.754 680.696 316.387 682.56 314.099 686.342C311.811 690.123 313.468 694.389 317.8 695.87C322.133 697.351 327.5 695.487 329.788 691.705Z" stroke="#83A15D" stroke-width="4.64722" stroke-linecap="round" stroke-linejoin="round"/>
<path d="M-8.62415 625.119C-7.63146 629.819 -2.21929 633.186 3.46424 632.641C9.14776 632.095 12.9504 627.843 11.9577 623.144C10.965 618.444 5.55285 615.077 -0.130675 615.622C-5.8142 616.167 -9.61688 620.419 -8.62415 625.119Z" stroke="#83A15D" stroke-width="4.64722" stroke-linecap="round" stroke-linejoin="round"/>
<path d="M-9.72069 648.408C-8.92651 652.167 -4.59681 654.861 -0.0499761 654.425C4.49685 653.989 7.53901 650.587 6.74483 646.827C5.95071 643.068 1.62094 640.374 -2.92589 640.81C-7.47272 641.246 -10.5148 644.648 -9.72069 648.408Z" stroke="#83A15D" stroke-width="4.64722" stroke-linecap="round" stroke-linejoin="round"/>
<path d="M1196.7 250.649C1207.46 255.317 1221.14 251.045 1227.1 241.178L1236.96 224.879C1243.66 213.786 1238.03 202.659 1224.37 200.204C1210.04 197.639 1192.54 205.039 1185.48 216.71C1177.83 229.368 1182.88 244.649 1196.7 250.649Z" stroke="#83A15D" stroke-width="4.64722" stroke-linecap="round" stroke-linejoin="round"/>
<path d="M1170.96 215.839C1173.82 211.113 1171.75 205.78 1166.33 203.929C1160.92 202.077 1154.21 204.408 1151.35 209.134C1148.49 213.861 1150.56 219.193 1155.98 221.045C1161.39 222.896 1168.1 220.566 1170.96 215.839Z" stroke="#83A15D" stroke-width="4.64722" stroke-linecap="round" stroke-linejoin="round"/>
<path d="M1188.8 195.332C1191.09 191.55 1189.43 187.284 1185.1 185.803C1180.76 184.322 1175.4 186.186 1173.11 189.968C1170.82 193.749 1172.48 198.015 1176.81 199.496C1181.14 200.977 1186.51 199.113 1188.8 195.332Z" stroke="#83A15D" stroke-width="4.64722" stroke-linecap="round" stroke-linejoin="round"/>
<path d="M1212.31 189.245C1214.02 186.409 1212.78 183.21 1209.53 182.099C1206.28 180.988 1202.26 182.386 1200.54 185.222C1198.83 188.058 1200.07 191.257 1203.32 192.368C1206.57 193.479 1210.59 192.081 1212.31 189.245Z" stroke="#83A15D" stroke-width="4.64722" stroke-linecap="round" stroke-linejoin="round"/>
<path d="M1172.07 241.966C1174.35 238.185 1172.7 233.919 1168.36 232.438C1164.03 230.956 1158.66 232.821 1156.38 236.602C1154.09 240.383 1155.75 244.649 1160.08 246.13C1164.41 247.612 1169.78 245.747 1172.07 241.966Z" stroke="#83A15D" stroke-width="4.64722" stroke-linecap="round" stroke-linejoin="round"/>
<path d="M704.863 356.162C713.952 373.171 736.875 381.277 755.796 374.218L787.047 362.558C808.316 354.623 813.234 334.223 797.84 317.237C781.66 299.414 750.178 291.607 727.8 299.956C703.53 309.011 693.208 334.322 704.863 356.162Z" stroke="#83A15D" stroke-width="4.64722" stroke-linecap="round" stroke-linejoin="round"/>
<path d="M713.638 292.072C722.591 288.732 725.747 279.703 720.688 271.904C715.629 264.106 704.269 260.492 695.316 263.832C686.363 267.172 683.207 276.201 688.266 283.999C693.325 291.798 704.684 295.412 713.638 292.072Z" stroke="#83A15D" stroke-width="4.64722" stroke-linecap="round" stroke-linejoin="round"/>
<path d="M763.956 280.275C771.119 277.603 773.644 270.379 769.596 264.141C765.549 257.902 756.462 255.011 749.299 257.683C742.137 260.355 739.611 267.578 743.659 273.817C747.706 280.055 756.794 282.947 763.956 280.275Z" stroke="#83A15D" stroke-width="4.64722" stroke-linecap="round" stroke-linejoin="round"/>
<path d="M802.351 291.944C807.722 289.94 809.616 284.522 806.581 279.843C803.545 275.164 796.729 272.995 791.358 274.999C785.986 277.003 784.092 282.421 787.128 287.1C790.163 291.779 796.979 293.948 802.351 291.944Z" stroke="#83A15D" stroke-width="4.64722" stroke-linecap="round" stroke-linejoin="round"/>
<path d="M679.968 326.543C687.13 323.871 689.655 316.647 685.608 310.409C681.56 304.17 672.473 301.279 665.311 303.951C658.148 306.622 655.623 313.846 659.67 320.085C663.718 326.323 672.805 329.215 679.968 326.543Z" stroke="#83A15D" stroke-width="4.64722" stroke-linecap="round" stroke-linejoin="round"/>
<path d="M968.127 132.607C952.958 146.154 951.247 165.541 964.277 175.699L985.8 192.479C1000.45 203.898 1023.34 198.651 1036.61 180.728C1050.53 161.904 1049.38 136.693 1033.97 124.678C1017.26 111.647 987.608 115.222 968.127 132.607Z" stroke="#83A15D" stroke-width="4.64722" stroke-linecap="round" stroke-linejoin="round"/>
<path d="M1041.79 104.813C1048.02 109.668 1058.56 108.001 1065.33 101.089C1072.1 94.1772 1072.54 84.638 1066.31 79.7829C1060.07 74.9276 1049.53 76.5949 1042.76 83.5067C1035.99 90.4186 1035.56 99.9577 1041.79 104.813Z" stroke="#83A15D" stroke-width="4.64722" stroke-linecap="round" stroke-linejoin="round"/>
<path d="M1064.89 135.459C1069.88 139.343 1078.31 138.009 1083.73 132.479C1089.14 126.95 1089.49 119.319 1084.51 115.434C1079.52 111.551 1071.09 112.884 1065.67 118.414C1060.26 123.943 1059.91 131.575 1064.89 135.459Z" stroke="#83A15D" stroke-width="4.64722" stroke-linecap="round" stroke-linejoin="round"/>
<path d="M1060.72 169.703C1064.46 172.616 1070.79 171.615 1074.85 167.468C1078.91 163.321 1079.17 157.597 1075.43 154.684C1071.69 151.771 1065.37 152.771 1061.31 156.919C1057.25 161.066 1056.98 166.79 1060.72 169.703Z" stroke="#83A15D" stroke-width="4.64722" stroke-linecap="round" stroke-linejoin="round"/>
<path d="M998.119 98.6803C1003.1 102.564 1011.54 101.23 1016.95 95.7008C1022.37 90.1713 1022.72 82.5401 1017.73 78.6559C1012.75 74.7718 1004.32 76.1056 998.9 81.6351C993.483 87.1646 993.134 94.7961 998.119 98.6803Z" stroke="#83A15D" stroke-width="4.64722" stroke-linecap="round" stroke-linejoin="round"/>
<path d="M418.872 164.187C413.651 167.746 413.386 173.791 418.266 177.623L426.326 183.951C431.811 188.258 439.964 187.69 444.422 182.658C449.097 177.371 448.228 169.349 442.456 164.817C436.197 159.903 425.577 159.62 418.872 164.187Z" stroke="#83A15D" stroke-width="4.64722" stroke-linecap="round" stroke-linejoin="round"/>
<path d="M444.456 159.806C446.779 161.63 450.527 161.608 452.828 159.756C455.129 157.904 455.111 154.925 452.788 153.101C450.465 151.277 446.717 151.299 444.416 153.151C442.115 155.003 442.133 157.982 444.456 159.806Z" stroke="#83A15D" stroke-width="4.64722" stroke-linecap="round" stroke-linejoin="round"/>
<path d="M453.967 170.447C455.826 171.906 458.824 171.888 460.665 170.407C462.506 168.926 462.492 166.542 460.633 165.083C458.775 163.624 455.776 163.642 453.935 165.123C452.094 166.604 452.109 168.988 453.967 170.447Z" stroke="#83A15D" stroke-width="4.64722" stroke-linecap="round" stroke-linejoin="round"/>
<path d="M453.545 180.698C454.939 181.792 457.188 181.778 458.569 180.667C459.949 179.556 459.939 177.769 458.545 176.674C457.151 175.58 454.902 175.593 453.521 176.705C452.141 177.815 452.151 179.603 453.545 180.698Z" stroke="#83A15D" stroke-width="4.64722" stroke-linecap="round" stroke-linejoin="round"/>
<path d="M428.181 155.492C430.039 156.951 433.038 156.933 434.879 155.452C436.719 153.971 436.705 151.587 434.847 150.128C432.988 148.669 429.989 148.687 428.149 150.168C426.308 151.65 426.322 154.033 428.181 155.492Z" stroke="#83A15D" stroke-width="4.64722" stroke-linecap="round" stroke-linejoin="round"/>
<path d="M900.723 195.383C909.84 188.478 909.893 177.596 900.871 171.196L885.969 160.625C875.827 153.43 861.241 155.253 853.595 164.728C845.579 174.681 847.698 189.001 858.369 196.571C869.942 204.781 889.013 204.243 900.723 195.383Z" stroke="#83A15D" stroke-width="4.64722" stroke-linecap="round" stroke-linejoin="round"/>
<path d="M855.57 205.482C851.28 202.439 844.564 202.847 840.57 206.395C836.576 209.942 836.817 215.285 841.107 218.328C845.397 221.371 852.112 220.963 856.106 217.415C860.1 213.868 859.86 208.525 855.57 205.482Z" stroke="#83A15D" stroke-width="4.64722" stroke-linecap="round" stroke-linejoin="round"/>
<path d="M837.496 187.191C834.064 184.756 828.692 185.083 825.497 187.921C822.302 190.759 822.494 195.033 825.926 197.468C829.358 199.902 834.73 199.576 837.925 196.738C841.12 193.9 840.928 189.625 837.496 187.191Z" stroke="#83A15D" stroke-width="4.64722" stroke-linecap="round" stroke-linejoin="round"/>
<path d="M837.26 168.783C834.686 166.957 830.657 167.202 828.261 169.331C825.864 171.459 826.008 174.665 828.582 176.491C831.156 178.317 835.186 178.071 837.582 175.943C839.978 173.814 839.834 170.609 837.26 168.783Z" stroke="#83A15D" stroke-width="4.64722" stroke-linecap="round" stroke-linejoin="round"/>
<path d="M885.128 211.893C881.696 209.458 876.324 209.785 873.129 212.623C869.934 215.461 870.126 219.735 873.558 222.17C876.99 224.605 882.362 224.278 885.557 221.44C888.752 218.602 888.56 214.327 885.128 211.893Z" stroke="#83A15D" stroke-width="4.64722" stroke-linecap="round" stroke-linejoin="round"/>
<path d="M509.299 289.755C497.298 290.079 489.197 298.396 491.27 308.226L494.694 324.462C497.025 335.513 509.392 342.071 522.186 338.974C535.614 335.712 544.622 323.572 542.169 311.946C539.51 299.336 524.707 289.346 509.299 289.755Z" stroke="#83A15D" stroke-width="4.64722" stroke-linecap="round" stroke-linejoin="round"/>
<path d="M553.221 305.804C554.214 310.503 559.626 313.871 565.31 313.326C570.993 312.78 574.796 308.528 573.803 303.829C572.81 299.129 567.398 295.761 561.715 296.307C556.031 296.852 552.229 301.104 553.221 305.804Z" stroke="#83A15D" stroke-width="4.64722" stroke-linecap="round" stroke-linejoin="round"/>
<path d="M552.125 329.092C552.919 332.852 557.249 335.546 561.795 335.11C566.342 334.673 569.384 331.272 568.59 327.512C567.796 323.753 563.466 321.059 558.92 321.495C554.373 321.931 551.331 325.333 552.125 329.092Z" stroke="#83A15D" stroke-width="4.64722" stroke-linecap="round" stroke-linejoin="round"/>
<path d="M537.293 343.334C537.888 346.153 541.136 348.174 544.546 347.847C547.956 347.519 550.238 344.968 549.642 342.149C549.047 339.329 545.799 337.308 542.389 337.636C538.979 337.963 536.697 340.514 537.293 343.334Z" stroke="#83A15D" stroke-width="4.64722" stroke-linecap="round" stroke-linejoin="round"/>
<path d="M535.726 285.805C536.52 289.564 540.85 292.258 545.397 291.822C549.944 291.386 552.986 287.984 552.192 284.224C551.398 280.465 547.068 277.771 542.521 278.207C537.974 278.643 534.932 282.045 535.726 285.805Z" stroke="#83A15D" stroke-width="4.64722" stroke-linecap="round" stroke-linejoin="round"/>
<path d="M455.394 473.075C450.173 476.635 449.908 482.68 454.788 486.511L462.848 492.84C468.333 497.147 476.486 496.579 480.944 491.546C485.618 486.26 484.75 478.238 478.978 473.706C472.718 468.791 462.099 468.509 455.394 473.075Z" stroke="#83A15D" stroke-width="4.64722" stroke-linecap="round" stroke-linejoin="round"/>
<path d="M480.978 468.695C483.301 470.519 487.049 470.496 489.35 468.645C491.651 466.793 491.633 463.813 489.31 461.99C486.987 460.166 483.239 460.188 480.938 462.04C478.637 463.891 478.655 466.871 480.978 468.695Z" stroke="#83A15D" stroke-width="4.64722" stroke-linecap="round" stroke-linejoin="round"/>
<path d="M490.489 479.336C492.347 480.795 495.346 480.777 497.187 479.296C499.027 477.814 499.013 475.431 497.155 473.972C495.297 472.513 492.298 472.53 490.457 474.012C488.616 475.493 488.631 477.877 490.489 479.336Z" stroke="#83A15D" stroke-width="4.64722" stroke-linecap="round" stroke-linejoin="round"/>
<path d="M490.067 489.586C491.461 490.681 493.71 490.667 495.09 489.556C496.471 488.445 496.46 486.657 495.066 485.563C493.673 484.469 491.424 484.482 490.043 485.593C488.662 486.704 488.673 488.492 490.067 489.586Z" stroke="#83A15D" stroke-width="4.64722" stroke-linecap="round" stroke-linejoin="round"/>
<path d="M464.702 464.381C466.561 465.84 469.56 465.822 471.4 464.341C473.241 462.86 473.227 460.476 471.368 459.017C469.51 457.558 466.511 457.576 464.67 459.057C462.83 460.538 462.844 462.922 464.702 464.381Z" stroke="#83A15D" stroke-width="4.64722" stroke-linecap="round" stroke-linejoin="round"/>
<path d="M138.234 149.004C143.45 158.768 156.58 163.435 167.407 159.399L185.29 152.733C197.462 148.197 200.263 136.498 191.437 126.743C182.161 116.508 164.131 112.007 151.325 116.78C137.437 121.957 131.546 136.468 138.234 149.004Z" stroke="#83A15D" stroke-width="4.64722" stroke-linecap="round" stroke-linejoin="round"/>
<path d="M143.212 112.247C148.335 110.338 150.136 105.16 147.233 100.683C144.331 96.2063 137.825 94.1249 132.702 96.0343C127.578 97.9438 125.778 103.121 128.68 107.598C131.582 112.075 138.088 114.156 143.212 112.247Z" stroke="#83A15D" stroke-width="4.64722" stroke-linecap="round" stroke-linejoin="round"/>
<path d="M172.011 105.516C176.11 103.988 177.55 99.8467 175.229 96.2651C172.907 92.6834 167.702 91.0183 163.603 92.5459C159.505 94.0733 158.064 98.2152 160.386 101.797C162.708 105.378 167.913 107.044 172.011 105.516Z" stroke="#83A15D" stroke-width="4.64722" stroke-linecap="round" stroke-linejoin="round"/>
<path d="M194.001 112.238C197.075 111.092 198.155 107.985 196.414 105.299C194.673 102.613 190.769 101.364 187.695 102.51C184.621 103.655 183.541 106.762 185.282 109.448C187.023 112.134 190.927 113.383 194.001 112.238Z" stroke="#83A15D" stroke-width="4.64722" stroke-linecap="round" stroke-linejoin="round"/>
<path d="M123.96 131.996C128.058 130.469 129.499 126.327 127.177 122.745C124.855 119.164 119.651 117.499 115.552 119.026C111.453 120.554 110.013 124.695 112.334 128.277C114.656 131.859 119.861 133.524 123.96 131.996Z" stroke="#83A15D" stroke-width="4.64722" stroke-linecap="round" stroke-linejoin="round"/>
<path d="M944.753 646.661C953.572 637.104 953.656 620.708 944.968 610.221L930.618 592.901C920.851 581.113 906.769 582.501 899.361 596.069C891.595 610.323 893.598 632.103 903.874 644.506C915.018 657.957 933.425 658.923 944.753 646.661Z" stroke="#83A15D" stroke-width="4.64722" stroke-linecap="round" stroke-linejoin="round"/>
<path d="M901.99 655.272C897.879 650.31 891.429 650.301 887.583 655.251C883.737 660.201 883.952 668.236 888.063 673.198C892.174 678.16 898.624 678.17 902.47 673.22C906.316 668.27 906.101 660.235 901.99 655.272Z" stroke="#83A15D" stroke-width="4.64722" stroke-linecap="round" stroke-linejoin="round"/>
<path d="M883.328 625.839C880.039 621.869 874.879 621.861 871.802 625.821C868.726 629.781 868.898 636.209 872.186 640.179C875.475 644.149 880.635 644.157 883.712 640.197C886.788 636.237 886.616 629.808 883.328 625.839Z" stroke="#83A15D" stroke-width="4.64722" stroke-linecap="round" stroke-linejoin="round"/>
<path d="M882.253 598.8C879.786 595.823 875.916 595.817 873.609 598.787C871.301 601.757 871.43 606.578 873.897 609.555C876.363 612.533 880.233 612.539 882.541 609.568C884.848 606.598 884.719 601.777 882.253 598.8Z" stroke="#83A15D" stroke-width="4.64722" stroke-linecap="round" stroke-linejoin="round"/>
<path d="M931.405 669.079C928.116 665.109 922.956 665.101 919.879 669.061C916.803 673.022 916.975 679.45 920.263 683.42C923.552 687.389 928.712 687.397 931.789 683.437C934.865 679.477 934.694 673.049 931.405 669.079Z" stroke="#83A15D" stroke-width="4.64722" stroke-linecap="round" stroke-linejoin="round"/>
<path d="M841.258 714.913C853.53 701.132 856.315 681.035 847.481 670.243L832.89 652.416C822.959 640.284 805.633 645.302 794.418 663.661C782.656 682.945 781.524 709.142 791.973 721.907C803.304 735.752 825.497 732.597 841.258 714.913Z" stroke="#83A15D" stroke-width="4.64722" stroke-linecap="round" stroke-linejoin="round"/>
<path d="M787.924 735.535C783.744 730.428 775.913 731.936 770.434 738.903C764.954 745.871 763.901 755.659 768.08 760.767C772.26 765.874 780.091 764.366 785.571 757.398C791.05 750.431 792.104 740.642 787.924 735.535Z" stroke="#83A15D" stroke-width="4.64722" stroke-linecap="round" stroke-linejoin="round"/>
<path d="M770.079 703.892C766.735 699.806 760.47 701.013 756.087 706.587C751.703 712.161 750.86 719.991 754.204 724.077C757.548 728.163 763.812 726.956 768.196 721.382C772.58 715.808 773.422 707.977 770.079 703.892Z" stroke="#83A15D" stroke-width="4.64722" stroke-linecap="round" stroke-linejoin="round"/>
<path d="M773.197 671.037C770.689 667.973 765.991 668.878 762.703 673.058C759.415 677.239 758.783 683.112 761.291 686.176C763.799 689.24 768.497 688.336 771.785 684.155C775.073 679.975 775.705 674.101 773.197 671.037Z" stroke="#83A15D" stroke-width="4.64722" stroke-linecap="round" stroke-linejoin="round"/>
<path d="M821.382 745.508C818.038 741.423 811.774 742.629 807.39 748.203C803.006 753.777 802.163 761.608 805.507 765.694C808.851 769.78 815.115 768.573 819.499 762.999C823.883 757.425 824.726 749.594 821.382 745.508Z" stroke="#83A15D" stroke-width="4.64722" stroke-linecap="round" stroke-linejoin="round"/>
<path d="M590.617 580.448C584.562 570.398 570.945 565.938 560.359 570.511L542.875 578.064C530.976 583.204 529.107 595.537 538.8 605.46C548.986 615.872 567.529 620.001 580.049 614.593C593.627 608.727 598.382 593.351 590.617 580.448Z" stroke="#83A15D" stroke-width="4.64722" stroke-linecap="round" stroke-linejoin="round"/>
<path d="M591.37 623.733C586.298 625.921 584.889 631.466 588.225 636.117C591.56 640.768 598.375 642.764 603.447 640.575C608.52 638.386 609.928 632.842 606.593 628.191C603.258 623.54 596.442 621.544 591.37 623.733Z" stroke="#83A15D" stroke-width="4.64722" stroke-linecap="round" stroke-linejoin="round"/>
<path d="M564.941 630.078C560.883 631.829 559.757 636.265 562.425 639.985C565.093 643.706 570.545 645.303 574.603 643.552C578.66 641.801 579.787 637.365 577.119 633.644C574.451 629.924 568.999 628.327 564.941 630.078Z" stroke="#83A15D" stroke-width="4.64722" stroke-linecap="round" stroke-linejoin="round"/>
<path d="M542.263 621.387C539.22 622.701 538.375 626.028 540.376 628.818C542.377 631.609 546.466 632.806 549.51 631.493C552.553 630.18 553.398 626.853 551.397 624.062C549.396 621.272 545.306 620.074 542.263 621.387Z" stroke="#83A15D" stroke-width="4.64722" stroke-linecap="round" stroke-linejoin="round"/>
<path d="M605.635 601.816C601.577 603.567 600.45 608.003 603.118 611.723C605.787 615.444 611.239 617.041 615.297 615.29C619.355 613.539 620.481 609.103 617.813 605.382C615.145 601.662 609.693 600.065 605.635 601.816Z" stroke="#83A15D" stroke-width="4.64722" stroke-linecap="round" stroke-linejoin="round"/>
<path d="M1004.25 404.443C1006.72 385.317 992.756 365.41 973.251 360.177L941.036 351.532C919.11 345.648 903.264 359.405 905.941 382.172C908.771 406.077 929.875 430.708 952.944 436.898C977.963 443.612 1001.06 428.993 1004.25 404.443Z" stroke="#83A15D" stroke-width="4.64722" stroke-linecap="round" stroke-linejoin="round"/>
<path d="M959.9 451.539C950.671 449.062 942.859 454.582 942.452 463.869C942.046 473.156 949.198 482.692 958.427 485.169C967.656 487.646 975.468 482.126 975.874 472.839C976.281 463.552 969.129 454.016 959.9 451.539Z" stroke="#83A15D" stroke-width="4.64722" stroke-linecap="round" stroke-linejoin="round"/>
<path d="M912.078 431.938C904.694 429.957 898.445 434.373 898.12 441.802C897.795 449.232 903.516 456.861 910.9 458.842C918.283 460.824 924.532 456.408 924.858 448.978C925.183 441.549 919.461 433.92 912.078 431.938Z" stroke="#83A15D" stroke-width="4.64722" stroke-linecap="round" stroke-linejoin="round"/>
<path d="M887.586 400.15C882.049 398.664 877.362 401.977 877.118 407.548C876.874 413.121 881.165 418.843 886.703 420.329C892.24 421.815 896.927 418.503 897.171 412.93C897.415 407.358 893.124 401.636 887.586 400.15Z" stroke="#83A15D" stroke-width="4.64722" stroke-linecap="round" stroke-linejoin="round"/>
<path d="M1007.33 443.012C999.942 441.03 993.693 445.447 993.368 452.877C993.043 460.306 998.764 467.935 1006.15 469.917C1013.53 471.898 1019.78 467.482 1020.11 460.052C1020.43 452.623 1014.71 444.994 1007.33 443.012Z" stroke="#83A15D" stroke-width="4.64722" stroke-linecap="round" stroke-linejoin="round"/>
<path d="M593.318 713.972C581.886 714.303 575.526 723.134 579.158 733.582L585.157 750.84C589.24 762.585 602.175 769.568 613.901 766.29C626.206 762.838 632.792 749.947 628.497 737.589C623.838 724.186 607.996 713.554 593.318 713.972Z" stroke="#83A15D" stroke-width="4.64722" stroke-linecap="round" stroke-linejoin="round"/>
<path d="M635.948 731.958C637.675 736.926 643.381 740.491 648.692 739.92C654.004 739.35 656.909 734.86 655.182 729.892C653.455 724.924 647.75 721.358 642.438 721.929C637.127 722.499 634.221 726.989 635.948 731.958Z" stroke="#83A15D" stroke-width="4.64722" stroke-linecap="round" stroke-linejoin="round"/>
<path d="M640.049 757.342C641.43 761.317 645.995 764.169 650.244 763.713C654.493 763.256 656.818 759.664 655.436 755.69C654.054 751.715 649.49 748.863 645.241 749.319C640.992 749.776 638.667 753.368 640.049 757.342Z" stroke="#83A15D" stroke-width="4.64722" stroke-linecap="round" stroke-linejoin="round"/>
<path d="M629.556 772.469C630.592 775.45 634.016 777.589 637.202 777.247C640.389 776.905 642.133 774.211 641.097 771.23C640.06 768.249 636.637 766.11 633.45 766.452C630.263 766.795 628.52 769.489 629.556 772.469Z" stroke="#83A15D" stroke-width="4.64722" stroke-linecap="round" stroke-linejoin="round"/>
<path d="M615.6 709.58C616.981 713.555 621.546 716.407 625.795 715.95C630.044 715.494 632.369 711.902 630.987 707.928C629.605 703.953 625.041 701.101 620.792 701.557C616.543 702.014 614.218 705.606 615.6 709.58Z" stroke="#83A15D" stroke-width="4.64722" stroke-linecap="round" stroke-linejoin="round"/>
<path d="M966.832 864.323C976.793 871.026 988.218 868.955 992.235 859.747L998.871 844.538C1003.39 834.187 997.123 821.669 984.907 816.764C972.079 811.626 957.698 816.283 952.946 827.174C947.793 838.986 954.049 855.713 966.832 864.323Z" stroke="#83A15D" stroke-width="4.64722" stroke-linecap="round" stroke-linejoin="round"/>
<path d="M940.382 825.761C942.301 821.358 939.849 815.474 934.904 812.619C929.96 809.764 924.395 811.019 922.476 815.422C920.556 819.826 923.009 825.709 927.953 828.564C932.898 831.419 938.462 830.164 940.382 825.761Z" stroke="#83A15D" stroke-width="4.64722" stroke-linecap="round" stroke-linejoin="round"/>
<path d="M954.792 807.433C956.328 803.911 954.366 799.204 950.41 796.92C946.455 794.636 942.003 795.64 940.467 799.163C938.932 802.685 940.894 807.392 944.85 809.676C948.805 811.96 953.257 810.955 954.792 807.433Z" stroke="#83A15D" stroke-width="4.64722" stroke-linecap="round" stroke-linejoin="round"/>
<path d="M975.136 804.445C976.288 801.804 974.817 798.273 971.85 796.56C968.883 794.847 965.544 795.601 964.392 798.242C963.241 800.884 964.712 804.414 967.679 806.127C970.646 807.84 973.985 807.087 975.136 804.445Z" stroke="#83A15D" stroke-width="4.64722" stroke-linecap="round" stroke-linejoin="round"/>
<path d="M1125.7 726.77C1132.02 726.902 1135.74 722.133 1133.99 716.181L1131.1 706.349C1129.13 699.658 1122.16 695.388 1115.61 696.898C1108.74 698.49 1104.79 705.527 1106.86 712.567C1109.1 720.202 1117.59 726.596 1125.7 726.77Z" stroke="#83A15D" stroke-width="4.64722" stroke-linecap="round" stroke-linejoin="round"/>
<path d="M1102.32 715.487C1101.49 712.653 1098.42 710.496 1095.48 710.668C1092.53 710.84 1090.81 713.277 1091.65 716.111C1092.48 718.944 1095.54 721.102 1098.49 720.929C1101.44 720.757 1103.16 718.32 1102.32 715.487Z" stroke="#83A15D" stroke-width="4.64722" stroke-linecap="round" stroke-linejoin="round"/>
<path d="M1100.75 701.301C1100.09 699.034 1097.64 697.308 1095.28 697.446C1092.92 697.584 1091.55 699.533 1092.21 701.8C1092.88 704.067 1095.33 705.793 1097.69 705.655C1100.05 705.517 1101.42 703.568 1100.75 701.301Z" stroke="#83A15D" stroke-width="4.64722" stroke-linecap="round" stroke-linejoin="round"/>
<path d="M1107.05 693.199C1106.55 691.499 1104.71 690.204 1102.94 690.308C1101.17 690.411 1100.14 691.873 1100.64 693.573C1101.14 695.273 1102.98 696.568 1104.75 696.464C1106.52 696.361 1107.55 694.899 1107.05 693.199Z" stroke="#83A15D" stroke-width="4.64722" stroke-linecap="round" stroke-linejoin="round"/>
<path d="M1113.07 728.446C1112.41 726.18 1109.95 724.454 1107.59 724.591C1105.24 724.729 1103.86 726.678 1104.53 728.945C1105.2 731.212 1107.65 732.938 1110.01 732.8C1112.37 732.663 1113.74 730.713 1113.07 728.446Z" stroke="#83A15D" stroke-width="4.64722" stroke-linecap="round" stroke-linejoin="round"/>
<path d="M1098.38 374.277C1086.94 374.608 1080.58 383.439 1084.22 393.887L1090.21 411.145C1094.3 422.89 1107.23 429.872 1118.96 426.595C1131.26 423.143 1137.85 410.251 1133.55 397.893C1128.9 384.491 1113.05 373.859 1098.38 374.277Z" stroke="#83A15D" stroke-width="4.64722" stroke-linecap="round" stroke-linejoin="round"/>
<path d="M1141.01 392.262C1142.73 397.231 1148.44 400.796 1153.75 400.225C1159.06 399.655 1161.97 395.165 1160.24 390.197C1158.51 385.228 1152.81 381.663 1147.5 382.234C1142.18 382.804 1139.28 387.294 1141.01 392.262Z" stroke="#83A15D" stroke-width="4.64722" stroke-linecap="round" stroke-linejoin="round"/>
<path d="M1145.11 417.647C1146.49 421.622 1151.05 424.474 1155.3 424.017C1159.55 423.561 1161.88 419.969 1160.49 415.994C1159.11 412.02 1154.55 409.168 1150.3 409.624C1146.05 410.081 1143.73 413.673 1145.11 417.647Z" stroke="#83A15D" stroke-width="4.64722" stroke-linecap="round" stroke-linejoin="round"/>
<path d="M1134.61 432.774C1135.65 435.755 1139.07 437.894 1142.26 437.552C1145.45 437.209 1147.19 434.515 1146.15 431.534C1145.12 428.554 1141.7 426.414 1138.51 426.757C1135.32 427.099 1133.58 429.793 1134.61 432.774Z" stroke="#83A15D" stroke-width="4.64722" stroke-linecap="round" stroke-linejoin="round"/>
<path d="M1120.66 369.885C1122.04 373.859 1126.6 376.712 1130.85 376.255C1135.1 375.799 1137.43 372.207 1136.04 368.232C1134.66 364.258 1130.1 361.406 1125.85 361.862C1121.6 362.318 1119.28 365.91 1120.66 369.885Z" stroke="#83A15D" stroke-width="4.64722" stroke-linecap="round" stroke-linejoin="round"/>
<path d="M1124.95 572.031C1134.91 578.734 1146.33 576.663 1150.35 567.455L1156.99 552.247C1161.5 541.896 1155.24 529.377 1143.02 524.473C1130.2 519.335 1115.81 523.992 1111.06 534.882C1105.91 546.694 1112.16 563.421 1124.95 572.031Z" stroke="#83A15D" stroke-width="4.64722" stroke-linecap="round" stroke-linejoin="round"/>
<path d="M1098.5 533.469C1100.42 529.066 1097.96 523.182 1093.02 520.327C1088.08 517.473 1082.51 518.728 1080.59 523.131C1078.67 527.534 1081.12 533.418 1086.07 536.272C1091.01 539.127 1096.58 537.872 1098.5 533.469Z" stroke="#83A15D" stroke-width="4.64722" stroke-linecap="round" stroke-linejoin="round"/>
<path d="M1112.91 515.141C1114.44 511.619 1112.48 506.912 1108.53 504.628C1104.57 502.344 1100.12 503.348 1098.58 506.871C1097.05 510.393 1099.01 515.1 1102.97 517.384C1106.92 519.668 1111.37 518.664 1112.91 515.141Z" stroke="#83A15D" stroke-width="4.64722" stroke-linecap="round" stroke-linejoin="round"/>
<path d="M1133.25 512.154C1134.4 509.512 1132.93 505.982 1129.97 504.269C1127 502.556 1123.66 503.309 1122.51 505.951C1121.36 508.592 1122.83 512.123 1125.79 513.836C1128.76 515.549 1132.1 514.795 1133.25 512.154Z" stroke="#83A15D" stroke-width="4.64722" stroke-linecap="round" stroke-linejoin="round"/>
<path d="M1101.14 559.909C1102.67 556.387 1100.71 551.68 1096.75 549.396C1092.8 547.112 1088.35 548.116 1086.81 551.639C1085.27 555.161 1087.24 559.868 1091.19 562.152C1095.15 564.436 1099.6 563.432 1101.14 559.909Z" stroke="#83A15D" stroke-width="4.64722" stroke-linecap="round" stroke-linejoin="round"/>
<path d="M1275.25 454.043C1281.57 454.175 1285.29 449.406 1283.54 443.454L1280.65 433.622C1278.69 426.931 1271.72 422.661 1265.17 424.171C1258.29 425.763 1254.34 432.8 1256.41 439.84C1258.66 447.475 1267.14 453.869 1275.25 454.043Z" stroke="#83A15D" stroke-width="4.64722" stroke-linecap="round" stroke-linejoin="round"/>
<path d="M1251.87 442.76C1251.04 439.926 1247.98 437.769 1245.03 437.941C1242.08 438.113 1240.36 440.55 1241.2 443.383C1242.03 446.217 1245.1 448.375 1248.04 448.202C1250.99 448.03 1252.71 445.593 1251.87 442.76Z" stroke="#83A15D" stroke-width="4.64722" stroke-linecap="round" stroke-linejoin="round"/>
<path d="M1250.31 428.574C1249.64 426.307 1247.19 424.581 1244.83 424.719C1242.47 424.857 1241.1 426.806 1241.76 429.073C1242.43 431.34 1244.88 433.066 1247.24 432.928C1249.6 432.79 1250.97 430.841 1250.31 428.574Z" stroke="#83A15D" stroke-width="4.64722" stroke-linecap="round" stroke-linejoin="round"/>
<path d="M1256.6 420.472C1256.1 418.772 1254.26 417.477 1252.49 417.581C1250.72 417.684 1249.69 419.146 1250.19 420.846C1250.69 422.546 1252.53 423.841 1254.3 423.737C1256.07 423.634 1257.1 422.172 1256.6 420.472Z" stroke="#83A15D" stroke-width="4.64722" stroke-linecap="round" stroke-linejoin="round"/>
<path d="M1262.62 455.719C1261.96 453.452 1259.5 451.727 1257.15 451.864C1254.79 452.002 1253.42 453.951 1254.08 456.218C1254.75 458.485 1257.2 460.211 1259.56 460.073C1261.92 459.935 1263.29 457.986 1262.62 455.719Z" stroke="#83A15D" stroke-width="4.64722" stroke-linecap="round" stroke-linejoin="round"/>
<path d="M380.697 383.649C391.461 388.317 405.138 384.045 411.104 374.178L420.957 357.879C427.663 346.786 422.027 335.659 408.374 333.204C394.035 330.639 376.539 338.039 369.483 349.71C361.831 362.368 366.884 377.649 380.697 383.649Z" stroke="#83A15D" stroke-width="4.64722" stroke-linecap="round" stroke-linejoin="round"/>
<path d="M354.959 348.839C357.819 344.113 355.748 338.78 350.332 336.929C344.917 335.077 338.209 337.408 335.349 342.134C332.489 346.861 334.56 352.193 339.976 354.045C345.391 355.896 352.099 353.566 354.959 348.839Z" stroke="#83A15D" stroke-width="4.64722" stroke-linecap="round" stroke-linejoin="round"/>
<path d="M372.798 328.332C375.086 324.55 373.428 320.284 369.096 318.803C364.764 317.322 359.397 319.186 357.109 322.968C354.821 326.749 356.478 331.015 360.811 332.496C365.143 333.977 370.51 332.113 372.798 328.332Z" stroke="#83A15D" stroke-width="4.64722" stroke-linecap="round" stroke-linejoin="round"/>
<path d="M396.309 322.245C398.025 319.409 396.782 316.21 393.533 315.099C390.283 313.988 386.258 315.386 384.542 318.222C382.826 321.058 384.069 324.257 387.318 325.368C390.568 326.479 394.593 325.081 396.309 322.245Z" stroke="#83A15D" stroke-width="4.64722" stroke-linecap="round" stroke-linejoin="round"/>
<path d="M356.065 374.966C358.353 371.185 356.696 366.919 352.363 365.438C348.031 363.956 342.664 365.821 340.376 369.602C338.089 373.383 339.746 377.649 344.078 379.13C348.41 380.612 353.777 378.747 356.065 374.966Z" stroke="#83A15D" stroke-width="4.64722" stroke-linecap="round" stroke-linejoin="round"/>
</svg>
