<svg width="825" height="883" viewBox="0 0 825 883" fill="none" xmlns="http://www.w3.org/2000/svg">
<path d="M224.281 263.983C235.044 268.652 248.721 264.38 254.687 254.512L264.54 238.213C271.247 227.121 265.61 215.993 251.957 213.539C237.618 210.973 220.123 218.374 213.067 230.045C205.414 242.703 210.467 257.983 224.281 263.983Z" stroke="#83A15D" stroke-width="4.64722" stroke-linecap="round" stroke-linejoin="round"/>
<path d="M198.543 229.173C201.403 224.447 199.331 219.114 193.916 217.263C188.5 215.411 181.792 217.742 178.932 222.469C176.072 227.195 178.144 232.528 183.559 234.379C188.974 236.231 195.683 233.9 198.543 229.173Z" stroke="#83A15D" stroke-width="4.64722" stroke-linecap="round" stroke-linejoin="round"/>
<path d="M216.381 208.666C218.669 204.885 217.012 200.619 212.679 199.138C208.347 197.657 202.98 199.521 200.692 203.302C198.405 207.083 200.062 211.35 204.394 212.831C208.726 214.312 214.093 212.447 216.381 208.666Z" stroke="#83A15D" stroke-width="4.64722" stroke-linecap="round" stroke-linejoin="round"/>
<path d="M239.892 202.58C241.608 199.744 240.365 196.544 237.116 195.433C233.866 194.322 229.841 195.721 228.125 198.557C226.41 201.392 227.652 204.592 230.902 205.703C234.151 206.814 238.176 205.415 239.892 202.58Z" stroke="#83A15D" stroke-width="4.64722" stroke-linecap="round" stroke-linejoin="round"/>
<path d="M199.648 255.3C201.936 251.519 200.279 247.253 195.947 245.772C191.614 244.291 186.248 246.155 183.96 249.937C181.672 253.718 183.329 257.984 187.661 259.465C191.994 260.946 197.361 259.082 199.648 255.3Z" stroke="#83A15D" stroke-width="4.64722" stroke-linecap="round" stroke-linejoin="round"/>
<path d="M218.437 557.776C229.201 562.444 242.878 558.172 248.843 548.305L258.697 532.006C265.403 520.913 259.767 509.786 246.113 507.331C231.775 504.765 214.279 512.166 207.223 523.837C199.571 536.495 204.624 551.776 218.437 557.776Z" stroke="#83A15D" stroke-width="4.64722" stroke-linecap="round" stroke-linejoin="round"/>
<path d="M192.699 522.966C195.559 518.24 193.488 512.907 188.072 511.056C182.657 509.204 175.948 511.535 173.089 516.261C170.229 520.988 172.3 526.32 177.715 528.172C183.131 530.023 189.839 527.693 192.699 522.966Z" stroke="#83A15D" stroke-width="4.64722" stroke-linecap="round" stroke-linejoin="round"/>
<path d="M210.537 502.459C212.826 498.677 211.168 494.411 206.836 492.93C202.504 491.449 197.137 493.313 194.849 497.095C192.561 500.876 194.218 505.142 198.551 506.623C202.883 508.104 208.25 506.24 210.537 502.459Z" stroke="#83A15D" stroke-width="4.64722" stroke-linecap="round" stroke-linejoin="round"/>
<path d="M234.049 496.372C235.764 493.536 234.521 490.337 231.272 489.226C228.023 488.115 223.998 489.513 222.282 492.349C220.566 495.185 221.809 498.384 225.058 499.495C228.307 500.606 232.333 499.208 234.049 496.372Z" stroke="#83A15D" stroke-width="4.64722" stroke-linecap="round" stroke-linejoin="round"/>
<path d="M193.805 549.093C196.093 545.312 194.436 541.046 190.103 539.564C185.771 538.083 180.404 539.948 178.116 543.729C175.828 547.51 177.486 551.776 181.818 553.257C186.15 554.739 191.517 552.874 193.805 549.093Z" stroke="#83A15D" stroke-width="4.64722" stroke-linecap="round" stroke-linejoin="round"/>
<path d="M47.9391 862.655C57.028 879.664 79.9516 887.771 98.8719 880.712L130.123 869.052C151.392 861.117 156.31 840.717 140.916 823.731C124.736 805.908 93.2543 798.101 70.8761 806.45C46.6061 815.505 36.2838 840.815 47.9391 862.655Z" stroke="#83A15D" stroke-width="4.64722" stroke-linecap="round" stroke-linejoin="round"/>
<path d="M56.7138 798.566C65.6668 795.226 68.8234 786.196 63.7642 778.398C58.7049 770.6 47.3456 766.985 38.3926 770.325C29.4393 773.665 26.2828 782.695 31.342 790.493C36.4012 798.291 47.7605 801.906 56.7138 798.566Z" stroke="#83A15D" stroke-width="4.64722" stroke-linecap="round" stroke-linejoin="round"/>
<path d="M107.032 786.768C114.195 784.096 116.72 776.873 112.672 770.634C108.625 764.396 99.5378 761.504 92.3751 764.176C85.2131 766.848 82.6874 774.072 86.7348 780.31C90.7822 786.549 99.87 789.44 107.032 786.768Z" stroke="#83A15D" stroke-width="4.64722" stroke-linecap="round" stroke-linejoin="round"/>
<path d="M145.427 798.437C150.798 796.433 152.692 791.016 149.657 786.337C146.621 781.657 139.805 779.489 134.434 781.493C129.062 783.497 127.168 788.915 130.204 793.594C133.239 798.273 140.055 800.441 145.427 798.437Z" stroke="#83A15D" stroke-width="4.64722" stroke-linecap="round" stroke-linejoin="round"/>
<path d="M23.0438 833.037C30.2062 830.365 32.7313 823.141 28.6839 816.902C24.6365 810.664 15.5491 807.772 8.38667 810.444C1.22421 813.116 -1.30104 820.34 2.74636 826.578C6.79375 832.817 15.8813 835.709 23.0438 833.037Z" stroke="#83A15D" stroke-width="4.64722" stroke-linecap="round" stroke-linejoin="round"/>
<path d="M202.895 372.086C212.012 365.181 212.065 354.298 203.043 347.898L188.141 337.328C177.999 330.133 163.413 331.955 155.767 341.431C147.751 351.384 149.87 365.704 160.541 373.274C172.114 381.483 191.185 380.946 202.895 372.086Z" stroke="#83A15D" stroke-width="4.64722" stroke-linecap="round" stroke-linejoin="round"/>
<path d="M157.741 382.185C153.451 379.141 146.736 379.55 142.742 383.098C138.748 386.645 138.988 391.988 143.278 395.031C147.569 398.074 154.284 397.666 158.278 394.118C162.272 390.571 162.032 385.228 157.741 382.185Z" stroke="#83A15D" stroke-width="4.64722" stroke-linecap="round" stroke-linejoin="round"/>
<path d="M139.668 363.894C136.236 361.459 130.864 361.786 127.669 364.624C124.474 367.462 124.666 371.736 128.098 374.171C131.529 376.605 136.902 376.279 140.097 373.441C143.292 370.603 143.1 366.328 139.668 363.894Z" stroke="#83A15D" stroke-width="4.64722" stroke-linecap="round" stroke-linejoin="round"/>
<path d="M139.432 345.486C136.858 343.66 132.829 343.905 130.433 346.033C128.036 348.162 128.18 351.368 130.754 353.194C133.328 355.019 137.357 354.774 139.754 352.646C142.15 350.517 142.006 347.312 139.432 345.486Z" stroke="#83A15D" stroke-width="4.64722" stroke-linecap="round" stroke-linejoin="round"/>
<path d="M187.3 388.596C183.868 386.161 178.496 386.488 175.301 389.326C172.106 392.164 172.298 396.438 175.73 398.873C179.162 401.307 184.534 400.98 187.729 398.142C190.924 395.305 190.732 391.03 187.3 388.596Z" stroke="#83A15D" stroke-width="4.64722" stroke-linecap="round" stroke-linejoin="round"/>
<path d="M215.515 916.597C226.279 921.266 239.956 916.994 245.922 907.126L255.775 890.827C262.481 879.735 256.845 868.607 243.192 866.153C228.853 863.587 211.357 870.988 204.301 882.659C196.649 895.317 201.702 910.597 215.515 916.597Z" stroke="#83A15D" stroke-width="4.64722" stroke-linecap="round" stroke-linejoin="round"/>
<path d="M189.777 881.788C192.637 877.061 190.566 871.729 185.15 869.877C179.735 868.026 173.027 870.356 170.167 875.083C167.307 879.809 169.378 885.142 174.794 886.993C180.209 888.845 186.917 886.514 189.777 881.788Z" stroke="#83A15D" stroke-width="4.64722" stroke-linecap="round" stroke-linejoin="round"/>
<path d="M207.616 861.28C209.904 857.499 208.246 853.233 203.914 851.752C199.582 850.271 194.215 852.135 191.927 855.916C189.639 859.697 191.297 863.963 195.629 865.445C199.961 866.926 205.328 865.061 207.616 861.28Z" stroke="#83A15D" stroke-width="4.64722" stroke-linecap="round" stroke-linejoin="round"/>
<path d="M231.127 855.194C232.843 852.358 231.6 849.158 228.351 848.047C225.101 846.936 221.076 848.335 219.36 851.171C217.644 854.006 218.887 857.206 222.137 858.317C225.386 859.428 229.411 858.029 231.127 855.194Z" stroke="#83A15D" stroke-width="4.64722" stroke-linecap="round" stroke-linejoin="round"/>
<path d="M199.973 730.907C209.09 724.002 209.143 713.12 200.121 706.72L185.219 696.149C175.077 688.955 160.491 690.777 152.845 700.253C144.829 710.206 146.948 724.526 157.619 732.096C169.192 740.305 188.264 739.767 199.973 730.907Z" stroke="#83A15D" stroke-width="4.64722" stroke-linecap="round" stroke-linejoin="round"/>
<path d="M154.82 741.006C150.53 737.963 143.814 738.372 139.82 741.919C135.827 745.467 136.067 750.81 140.357 753.853C144.647 756.896 151.362 756.487 155.356 752.94C159.35 749.392 159.11 744.05 154.82 741.006Z" stroke="#83A15D" stroke-width="4.64722" stroke-linecap="round" stroke-linejoin="round"/>
<path d="M136.746 722.716C133.314 720.281 127.942 720.608 124.747 723.446C121.552 726.284 121.744 730.558 125.176 732.993C128.608 735.427 133.98 735.1 137.175 732.262C140.371 729.424 140.178 725.15 136.746 722.716Z" stroke="#83A15D" stroke-width="4.64722" stroke-linecap="round" stroke-linejoin="round"/>
<path d="M136.51 704.307C133.936 702.482 129.907 702.727 127.511 704.855C125.114 706.984 125.258 710.19 127.832 712.015C130.406 713.841 134.436 713.596 136.832 711.468C139.228 709.339 139.084 706.133 136.51 704.307Z" stroke="#83A15D" stroke-width="4.64722" stroke-linecap="round" stroke-linejoin="round"/>
<path d="M184.379 747.417C180.946 744.983 175.574 745.31 172.379 748.148C169.184 750.986 169.376 755.26 172.808 757.695C176.24 760.129 181.612 759.802 184.807 756.964C188.003 754.126 187.811 749.852 184.379 747.417Z" stroke="#83A15D" stroke-width="4.64722" stroke-linecap="round" stroke-linejoin="round"/>
<path d="M615.628 249.547C624.717 266.557 647.641 274.663 666.561 267.604L697.812 255.944C719.081 248.009 723.999 227.609 708.605 210.623C692.425 192.8 660.943 184.993 638.565 193.342C614.295 202.397 603.973 227.707 615.628 249.547Z" stroke="#83A15D" stroke-width="4.64722" stroke-linecap="round" stroke-linejoin="round"/>
<path d="M624.403 185.458C633.356 182.118 636.512 173.088 631.453 165.29C626.394 157.492 615.035 153.878 606.082 157.218C597.128 160.558 593.972 169.587 599.031 177.385C604.09 185.184 615.449 188.798 624.403 185.458Z" stroke="#83A15D" stroke-width="4.64722" stroke-linecap="round" stroke-linejoin="round"/>
<path d="M674.721 173.661C681.884 170.989 684.409 163.765 680.361 157.527C676.314 151.288 667.227 148.396 660.064 151.069C652.902 153.74 650.376 160.964 654.424 167.203C658.471 173.441 667.559 176.333 674.721 173.661Z" stroke="#83A15D" stroke-width="4.64722" stroke-linecap="round" stroke-linejoin="round"/>
<path d="M713.116 185.33C718.487 183.326 720.381 177.908 717.346 173.229C714.31 168.55 707.494 166.381 702.123 168.385C696.751 170.389 694.857 175.807 697.893 180.486C700.928 185.165 707.744 187.334 713.116 185.33Z" stroke="#83A15D" stroke-width="4.64722" stroke-linecap="round" stroke-linejoin="round"/>
<path d="M590.733 219.929C597.895 217.257 600.42 210.033 596.373 203.795C592.326 197.556 583.238 194.665 576.076 197.337C568.913 200.009 566.388 207.232 570.435 213.471C574.483 219.709 583.57 222.601 590.733 219.929Z" stroke="#83A15D" stroke-width="4.64722" stroke-linecap="round" stroke-linejoin="round"/>
<path d="M361.872 80.2023C356.651 83.7615 356.386 89.807 361.266 93.6384L369.326 99.9667C374.811 104.274 382.964 103.706 387.422 98.6734C392.097 93.3868 391.228 85.3646 385.456 80.833C379.197 75.9183 368.577 75.6358 361.872 80.2023Z" stroke="#83A15D" stroke-width="4.64722" stroke-linecap="round" stroke-linejoin="round"/>
<path d="M387.456 75.8218C389.779 77.6457 393.527 77.6232 395.828 75.7716C398.129 73.92 398.111 70.9403 395.788 69.1165C393.465 67.2925 389.717 67.315 387.416 69.1666C385.115 71.0183 385.133 73.9979 387.456 75.8218Z" stroke="#83A15D" stroke-width="4.64722" stroke-linecap="round" stroke-linejoin="round"/>
<path d="M396.967 86.4628C398.826 87.9219 401.824 87.9039 403.665 86.4226C405.506 84.9413 405.492 82.5577 403.633 81.0985C401.775 79.6395 398.776 79.6574 396.935 81.1387C395.095 82.62 395.109 85.0038 396.967 86.4628Z" stroke="#83A15D" stroke-width="4.64722" stroke-linecap="round" stroke-linejoin="round"/>
<path d="M396.545 96.7132C397.939 97.8075 400.188 97.794 401.569 96.6831C402.949 95.572 402.939 93.7843 401.545 92.69C400.151 91.5957 397.902 91.6091 396.521 92.7202C395.141 93.8311 395.152 95.6189 396.545 96.7132Z" stroke="#83A15D" stroke-width="4.64722" stroke-linecap="round" stroke-linejoin="round"/>
<path d="M371.181 71.508C373.039 72.9671 376.038 72.9491 377.879 71.4678C379.719 69.9865 379.705 67.6028 377.847 66.1437C375.988 64.6846 372.99 64.7025 371.149 66.1838C369.308 67.6651 369.322 70.0489 371.181 71.508Z" stroke="#83A15D" stroke-width="4.64722" stroke-linecap="round" stroke-linejoin="round"/>
<path d="M780.283 238.46C791.046 243.129 804.723 238.857 810.689 228.989L820.543 212.691C827.249 201.598 821.612 190.47 807.959 188.016C793.621 185.45 776.125 192.851 769.069 204.522C761.416 217.18 766.469 232.461 780.283 238.46Z" stroke="#83A15D" stroke-width="4.64722" stroke-linecap="round" stroke-linejoin="round"/>
<path d="M754.545 203.651C757.405 198.924 755.333 193.592 749.918 191.74C744.503 189.889 737.794 192.219 734.934 196.946C732.074 201.672 734.146 207.005 739.561 208.856C744.976 210.708 751.685 208.377 754.545 203.651Z" stroke="#83A15D" stroke-width="4.64722" stroke-linecap="round" stroke-linejoin="round"/>
<path d="M772.383 183.143C774.671 179.362 773.014 175.096 768.682 173.615C764.349 172.134 758.983 173.998 756.695 177.78C754.407 181.56 756.064 185.827 760.396 187.308C764.728 188.789 770.095 186.924 772.383 183.143Z" stroke="#83A15D" stroke-width="4.64722" stroke-linecap="round" stroke-linejoin="round"/>
<path d="M795.894 177.057C797.61 174.221 796.367 171.021 793.118 169.91C789.868 168.799 785.843 170.198 784.128 173.034C782.412 175.87 783.654 179.069 786.904 180.18C790.153 181.291 794.178 179.892 795.894 177.057Z" stroke="#83A15D" stroke-width="4.64722" stroke-linecap="round" stroke-linejoin="round"/>
<path d="M755.651 229.778C757.939 225.996 756.281 221.73 751.949 220.249C747.617 218.768 742.25 220.633 739.962 224.414C737.674 228.195 739.331 232.461 743.663 233.942C747.996 235.423 753.363 233.559 755.651 229.778Z" stroke="#83A15D" stroke-width="4.64722" stroke-linecap="round" stroke-linejoin="round"/>
<path d="M470.963 690.598C464.913 708.91 474.852 731.101 493.012 739.934L523.007 754.524C543.421 764.454 561.586 753.947 563.27 731.085C565.018 707.077 548.962 678.895 527.483 668.448C504.188 657.117 478.741 667.096 470.963 690.598Z" stroke="#83A15D" stroke-width="4.64722" stroke-linecap="round" stroke-linejoin="round"/>
<path d="M523.425 652.754C532.018 656.935 540.734 652.994 542.892 643.952C545.05 634.91 539.834 624.192 531.241 620.012C522.648 615.832 513.932 619.773 511.774 628.814C509.616 637.856 514.832 648.574 523.425 652.754Z" stroke="#83A15D" stroke-width="4.64722" stroke-linecap="round" stroke-linejoin="round"/>
<path d="M566.669 681.058C573.544 684.402 580.516 681.249 582.243 674.015C583.969 666.782 579.796 658.208 572.922 654.863C566.048 651.519 559.075 654.672 557.348 661.905C555.622 669.139 559.795 677.714 566.669 681.058Z" stroke="#83A15D" stroke-width="4.64722" stroke-linecap="round" stroke-linejoin="round"/>
<path d="M584.697 716.909C589.853 719.417 595.082 717.052 596.377 711.627C597.672 706.202 594.542 699.771 589.387 697.263C584.231 694.755 579.002 697.119 577.707 702.545C576.412 707.97 579.542 714.401 584.697 716.909Z" stroke="#83A15D" stroke-width="4.64722" stroke-linecap="round" stroke-linejoin="round"/>
<path d="M475.243 652.145C482.117 655.489 489.09 652.335 490.816 645.102C492.543 637.869 488.37 629.294 481.495 625.95C474.621 622.606 467.649 625.759 465.922 632.992C464.195 640.225 468.368 648.8 475.243 652.145Z" stroke="#83A15D" stroke-width="4.64722" stroke-linecap="round" stroke-linejoin="round"/>
<path d="M470.963 690.598C464.913 708.91 474.852 731.101 493.012 739.934L523.007 754.524C543.421 764.454 561.586 753.947 563.27 731.085C565.018 707.077 548.962 678.895 527.483 668.448C504.188 657.117 478.741 667.096 470.963 690.598Z" stroke="#83A15D" stroke-width="4.64722" stroke-linecap="round" stroke-linejoin="round"/>
<path d="M523.425 652.754C532.018 656.935 540.734 652.994 542.892 643.952C545.05 634.91 539.834 624.192 531.241 620.012C522.648 615.832 513.932 619.773 511.774 628.814C509.616 637.856 514.832 648.574 523.425 652.754Z" stroke="#83A15D" stroke-width="4.64722" stroke-linecap="round" stroke-linejoin="round"/>
<path d="M566.669 681.058C573.544 684.402 580.516 681.249 582.243 674.015C583.969 666.782 579.796 658.208 572.922 654.863C566.048 651.519 559.075 654.672 557.348 661.905C555.622 669.139 559.795 677.714 566.669 681.058Z" stroke="#83A15D" stroke-width="4.64722" stroke-linecap="round" stroke-linejoin="round"/>
<path d="M584.697 716.909C589.853 719.417 595.082 717.052 596.377 711.627C597.672 706.202 594.542 699.771 589.387 697.263C584.231 694.755 579.002 697.119 577.707 702.545C576.412 707.97 579.542 714.401 584.697 716.909Z" stroke="#83A15D" stroke-width="4.64722" stroke-linecap="round" stroke-linejoin="round"/>
<path d="M475.243 652.145C482.117 655.489 489.09 652.335 490.816 645.102C492.543 637.869 488.37 629.294 481.495 625.95C474.621 622.606 467.649 625.759 465.922 632.992C464.195 640.225 468.368 648.8 475.243 652.145Z" stroke="#83A15D" stroke-width="4.64722" stroke-linecap="round" stroke-linejoin="round"/>
<path d="M781.393 101.978C790.51 95.073 790.563 84.1908 781.541 77.7908L766.639 67.2199C756.497 60.0254 741.911 61.8478 734.265 71.3231C726.249 81.2762 728.369 95.5966 739.04 103.166C750.613 111.376 769.684 110.838 781.393 101.978Z" stroke="#83A15D" stroke-width="4.64722" stroke-linecap="round" stroke-linejoin="round"/>
<path d="M736.24 112.077C731.95 109.034 725.234 109.443 721.241 112.99C717.247 116.537 717.487 121.88 721.777 124.923C726.067 127.967 732.782 127.558 736.776 124.01C740.77 120.463 740.53 115.12 736.24 112.077Z" stroke="#83A15D" stroke-width="4.64722" stroke-linecap="round" stroke-linejoin="round"/>
<path d="M718.167 93.7862C714.734 91.3516 709.362 91.6787 706.167 94.5166C702.972 97.3545 703.164 101.629 706.596 104.063C710.028 106.498 715.401 106.171 718.596 103.333C721.791 100.495 721.598 96.2206 718.167 93.7862Z" stroke="#83A15D" stroke-width="4.64722" stroke-linecap="round" stroke-linejoin="round"/>
<path d="M717.931 75.3779C715.357 73.5521 711.327 73.7973 708.931 75.9257C706.534 78.0543 706.679 81.26 709.253 83.0858C711.827 84.9117 715.856 84.6666 718.252 82.5379C720.649 80.4096 720.505 77.2038 717.931 75.3779Z" stroke="#83A15D" stroke-width="4.64722" stroke-linecap="round" stroke-linejoin="round"/>
<path d="M765.799 118.488C762.367 116.053 756.994 116.38 753.799 119.218C750.604 122.056 750.796 126.331 754.228 128.765C757.66 131.2 763.033 130.873 766.228 128.035C769.423 125.197 769.231 120.922 765.799 118.488Z" stroke="#83A15D" stroke-width="4.64722" stroke-linecap="round" stroke-linejoin="round"/>
<path d="M373.317 147.143C361.316 147.466 353.214 155.784 355.287 165.614L358.712 181.85C361.043 192.9 373.409 199.458 386.204 196.361C399.631 193.1 408.639 180.96 406.187 169.333C403.527 156.724 388.724 146.734 373.317 147.143Z" stroke="#83A15D" stroke-width="4.64722" stroke-linecap="round" stroke-linejoin="round"/>
<path d="M417.239 163.192C418.231 167.891 423.644 171.259 429.327 170.713C435.011 170.168 438.813 165.916 437.821 161.216C436.828 156.517 431.416 153.149 425.732 153.695C420.049 154.24 416.246 158.492 417.239 163.192Z" stroke="#83A15D" stroke-width="4.64722" stroke-linecap="round" stroke-linejoin="round"/>
<path d="M416.142 186.48C416.936 190.24 421.266 192.934 425.813 192.497C430.36 192.061 433.402 188.66 432.608 184.9C431.814 181.14 427.484 178.446 422.937 178.882C418.39 179.319 415.348 182.721 416.142 186.48Z" stroke="#83A15D" stroke-width="4.64722" stroke-linecap="round" stroke-linejoin="round"/>
<path d="M401.31 200.721C401.906 203.541 405.153 205.562 408.563 205.235C411.974 204.907 414.255 202.356 413.66 199.536C413.064 196.717 409.817 194.696 406.406 195.023C402.996 195.351 400.715 197.902 401.31 200.721Z" stroke="#83A15D" stroke-width="4.64722" stroke-linecap="round" stroke-linejoin="round"/>
<path d="M399.743 143.192C400.538 146.952 404.868 149.646 409.414 149.21C413.961 148.773 417.003 145.372 416.209 141.612C415.415 137.853 411.085 135.159 406.538 135.595C401.992 136.031 398.949 139.433 399.743 143.192Z" stroke="#83A15D" stroke-width="4.64722" stroke-linecap="round" stroke-linejoin="round"/>
<path d="M375.872 329.326C370.651 332.886 370.386 338.931 375.266 342.762L383.326 349.091C388.811 353.398 396.964 352.83 401.422 347.797C406.097 342.511 405.228 334.489 399.456 329.957C393.197 325.042 382.577 324.76 375.872 329.326Z" stroke="#83A15D" stroke-width="4.64722" stroke-linecap="round" stroke-linejoin="round"/>
<path d="M401.456 324.946C403.779 326.77 407.527 326.747 409.828 324.896C412.129 323.044 412.111 320.064 409.788 318.24C407.465 316.417 403.717 316.439 401.416 318.291C399.115 320.142 399.133 323.122 401.456 324.946Z" stroke="#83A15D" stroke-width="4.64722" stroke-linecap="round" stroke-linejoin="round"/>
<path d="M410.967 335.587C412.826 337.046 415.824 337.028 417.665 335.547C419.506 334.065 419.492 331.682 417.633 330.223C415.775 328.764 412.776 328.781 410.935 330.263C409.094 331.744 409.109 334.128 410.967 335.587Z" stroke="#83A15D" stroke-width="4.64722" stroke-linecap="round" stroke-linejoin="round"/>
<path d="M410.545 345.837C411.939 346.932 414.188 346.918 415.569 345.807C416.949 344.696 416.939 342.908 415.545 341.814C414.151 340.72 411.902 340.733 410.521 341.844C409.141 342.955 409.152 344.743 410.545 345.837Z" stroke="#83A15D" stroke-width="4.64722" stroke-linecap="round" stroke-linejoin="round"/>
<path d="M385.181 320.632C387.039 322.091 390.038 322.073 391.879 320.592C393.719 319.11 393.705 316.727 391.847 315.268C389.988 313.809 386.99 313.827 385.149 315.308C383.308 316.789 383.322 319.173 385.181 320.632Z" stroke="#83A15D" stroke-width="4.64722" stroke-linecap="round" stroke-linejoin="round"/>
<path d="M777.361 597.282C788.124 601.951 801.802 597.679 807.767 587.811L817.621 571.512C824.327 560.42 818.69 549.292 805.037 546.838C790.699 544.272 773.203 551.672 766.147 563.344C758.494 576.001 763.547 591.282 777.361 597.282Z" stroke="#83A15D" stroke-width="4.64722" stroke-linecap="round" stroke-linejoin="round"/>
<path d="M751.623 562.472C754.483 557.746 752.411 552.413 746.996 550.562C741.581 548.71 734.872 551.041 732.012 555.768C729.152 560.494 731.224 565.827 736.639 567.678C742.055 569.53 748.763 567.199 751.623 562.472Z" stroke="#83A15D" stroke-width="4.64722" stroke-linecap="round" stroke-linejoin="round"/>
<path d="M769.461 541.965C771.749 538.184 770.092 533.918 765.76 532.437C761.427 530.955 756.061 532.82 753.773 536.601C751.485 540.382 753.142 544.648 757.474 546.129C761.807 547.611 767.173 545.746 769.461 541.965Z" stroke="#83A15D" stroke-width="4.64722" stroke-linecap="round" stroke-linejoin="round"/>
<path d="M792.972 535.878C794.688 533.043 793.445 529.843 790.196 528.732C786.947 527.621 782.922 529.02 781.206 531.855C779.49 534.691 780.733 537.891 783.982 539.002C787.231 540.113 791.256 538.714 792.972 535.878Z" stroke="#83A15D" stroke-width="4.64722" stroke-linecap="round" stroke-linejoin="round"/>
<path d="M752.729 588.599C755.017 584.818 753.359 580.552 749.027 579.071C744.695 577.59 739.328 579.454 737.04 583.235C734.752 587.017 736.409 591.283 740.742 592.764C745.074 594.245 750.441 592.38 752.729 588.599Z" stroke="#83A15D" stroke-width="4.64722" stroke-linecap="round" stroke-linejoin="round"/>
<path d="M606.863 902.162C615.952 919.171 638.875 927.277 657.796 920.218L689.047 908.558C710.316 900.623 715.234 880.223 699.84 863.237C683.66 845.414 652.178 837.607 629.8 845.956C605.53 855.011 595.208 880.322 606.863 902.162Z" stroke="#83A15D" stroke-width="4.64722" stroke-linecap="round" stroke-linejoin="round"/>
<path d="M615.638 838.072C624.591 834.732 627.747 825.703 622.688 817.904C617.629 810.106 606.269 806.492 597.316 809.832C588.363 813.172 585.207 822.201 590.266 829.999C595.325 837.798 606.684 841.412 615.638 838.072Z" stroke="#83A15D" stroke-width="4.64722" stroke-linecap="round" stroke-linejoin="round"/>
<path d="M665.956 826.275C673.119 823.603 675.644 816.379 671.596 810.141C667.549 803.902 658.462 801.011 651.299 803.683C644.137 806.355 641.611 813.578 645.659 819.817C649.706 826.055 658.794 828.947 665.956 826.275Z" stroke="#83A15D" stroke-width="4.64722" stroke-linecap="round" stroke-linejoin="round"/>
<path d="M704.351 837.944C709.722 835.94 711.616 830.522 708.581 825.843C705.545 821.164 698.729 818.995 693.358 820.999C687.986 823.003 686.092 828.421 689.128 833.1C692.163 837.779 698.979 839.948 704.351 837.944Z" stroke="#83A15D" stroke-width="4.64722" stroke-linecap="round" stroke-linejoin="round"/>
<path d="M581.968 872.543C589.13 869.871 591.655 862.647 587.608 856.409C583.56 850.17 574.473 847.279 567.311 849.951C560.148 852.622 557.623 859.846 561.67 866.085C565.718 872.323 574.805 875.215 581.968 872.543Z" stroke="#83A15D" stroke-width="4.64722" stroke-linecap="round" stroke-linejoin="round"/>
<path d="M761.819 411.592C770.936 404.687 770.989 393.805 761.967 387.405L747.065 376.834C736.923 369.639 722.337 371.462 714.691 380.937C706.675 390.89 708.794 405.211 719.465 412.78C731.038 420.99 750.109 420.452 761.819 411.592Z" stroke="#83A15D" stroke-width="4.64722" stroke-linecap="round" stroke-linejoin="round"/>
<path d="M716.665 421.691C712.375 418.648 705.66 419.057 701.666 422.604C697.672 426.151 697.912 431.494 702.202 434.537C706.492 437.581 713.208 437.172 717.202 433.624C721.196 430.077 720.956 424.734 716.665 421.691Z" stroke="#83A15D" stroke-width="4.64722" stroke-linecap="round" stroke-linejoin="round"/>
<path d="M698.592 403.4C695.16 400.966 689.788 401.293 686.592 404.131C683.397 406.969 683.589 411.243 687.022 413.677C690.453 416.112 695.826 415.785 699.021 412.947C702.216 410.109 702.024 405.835 698.592 403.4Z" stroke="#83A15D" stroke-width="4.64722" stroke-linecap="round" stroke-linejoin="round"/>
<path d="M698.356 384.992C695.782 383.166 691.753 383.411 689.356 385.54C686.96 387.668 687.104 390.874 689.678 392.7C692.252 394.526 696.281 394.281 698.678 392.152C701.074 390.024 700.93 386.818 698.356 384.992Z" stroke="#83A15D" stroke-width="4.64722" stroke-linecap="round" stroke-linejoin="round"/>
<path d="M746.224 428.102C742.792 425.667 737.42 425.995 734.225 428.833C731.029 431.67 731.221 435.945 734.654 438.379C738.086 440.814 743.458 440.487 746.653 437.649C749.848 434.811 749.656 430.537 746.224 428.102Z" stroke="#83A15D" stroke-width="4.64722" stroke-linecap="round" stroke-linejoin="round"/>
<path d="M370.395 505.965C358.394 506.288 350.292 514.606 352.366 524.436L355.79 540.672C358.121 551.722 370.488 558.28 383.282 555.183C396.71 551.921 405.717 539.781 403.265 528.155C400.606 515.546 385.803 505.556 370.395 505.965Z" stroke="#83A15D" stroke-width="4.64722" stroke-linecap="round" stroke-linejoin="round"/>
<path d="M414.317 522.013C415.31 526.713 420.722 530.081 426.405 529.535C432.089 528.99 435.892 524.738 434.899 520.038C433.906 515.339 428.494 511.971 422.81 512.516C417.127 513.062 413.324 517.314 414.317 522.013Z" stroke="#83A15D" stroke-width="4.64722" stroke-linecap="round" stroke-linejoin="round"/>
<path d="M413.22 545.302C414.015 549.062 418.344 551.756 422.891 551.319C427.438 550.883 430.48 547.482 429.686 543.722C428.892 539.962 424.562 537.268 420.015 537.704C415.468 538.141 412.426 541.542 413.22 545.302Z" stroke="#83A15D" stroke-width="4.64722" stroke-linecap="round" stroke-linejoin="round"/>
<path d="M398.389 559.543C398.984 562.363 402.232 564.383 405.642 564.056C409.052 563.729 411.333 561.178 410.738 558.358C410.142 555.538 406.895 553.518 403.485 553.845C400.075 554.172 397.793 556.723 398.389 559.543Z" stroke="#83A15D" stroke-width="4.64722" stroke-linecap="round" stroke-linejoin="round"/>
<path d="M396.822 502.014C397.616 505.774 401.946 508.468 406.493 508.031C411.039 507.595 414.082 504.194 413.287 500.434C412.493 496.674 408.164 493.98 403.617 494.417C399.07 494.853 396.028 498.254 396.822 502.014Z" stroke="#83A15D" stroke-width="4.64722" stroke-linecap="round" stroke-linejoin="round"/>
<path d="M320.872 710.187C315.651 713.746 315.386 719.791 320.266 723.623L328.326 729.951C333.811 734.258 341.964 733.69 346.422 728.658C351.097 723.371 350.228 715.349 344.456 710.817C338.197 705.903 327.577 705.62 320.872 710.187Z" stroke="#83A15D" stroke-width="4.64722" stroke-linecap="round" stroke-linejoin="round"/>
<path d="M346.456 705.806C348.779 707.63 352.527 707.608 354.828 705.756C357.129 703.904 357.111 700.925 354.788 699.101C352.465 697.277 348.717 697.299 346.416 699.151C344.115 701.003 344.133 703.982 346.456 705.806Z" stroke="#83A15D" stroke-width="4.64722" stroke-linecap="round" stroke-linejoin="round"/>
<path d="M355.967 716.447C357.826 717.906 360.824 717.888 362.665 716.407C364.506 714.926 364.492 712.542 362.633 711.083C360.775 709.624 357.776 709.642 355.935 711.123C354.094 712.604 354.109 714.988 355.967 716.447Z" stroke="#83A15D" stroke-width="4.64722" stroke-linecap="round" stroke-linejoin="round"/>
<path d="M355.545 726.698C356.939 727.792 359.188 727.778 360.569 726.667C361.949 725.556 361.939 723.769 360.545 722.674C359.151 721.58 356.902 721.593 355.521 722.705C354.141 723.815 354.152 725.603 355.545 726.698Z" stroke="#83A15D" stroke-width="4.64722" stroke-linecap="round" stroke-linejoin="round"/>
<path d="M330.181 701.492C332.039 702.951 335.038 702.933 336.879 701.452C338.719 699.971 338.705 697.587 336.847 696.128C334.988 694.669 331.989 694.687 330.149 696.168C328.308 697.65 328.322 700.033 330.181 701.492Z" stroke="#83A15D" stroke-width="4.64722" stroke-linecap="round" stroke-linejoin="round"/>
<path d="M802.723 741.383C811.84 734.478 811.893 723.596 802.871 717.196L787.969 706.625C777.827 699.43 763.241 701.253 755.595 710.728C747.579 720.681 749.698 735.001 760.369 742.571C771.942 750.781 791.013 750.243 802.723 741.383Z" stroke="#83A15D" stroke-width="4.64722" stroke-linecap="round" stroke-linejoin="round"/>
<path d="M757.57 751.482C753.28 748.439 746.564 748.847 742.57 752.395C738.576 755.942 738.817 761.285 743.107 764.328C747.397 767.371 754.112 766.963 758.106 763.415C762.1 759.868 761.86 754.525 757.57 751.482Z" stroke="#83A15D" stroke-width="4.64722" stroke-linecap="round" stroke-linejoin="round"/>
<path d="M739.496 733.191C736.064 730.756 730.692 731.083 727.497 733.921C724.302 736.759 724.494 741.033 727.926 743.468C731.358 745.902 736.73 745.576 739.925 742.738C743.12 739.9 742.928 735.625 739.496 733.191Z" stroke="#83A15D" stroke-width="4.64722" stroke-linecap="round" stroke-linejoin="round"/>
<path d="M739.26 714.783C736.686 712.957 732.657 713.202 730.261 715.331C727.864 717.459 728.008 720.665 730.582 722.491C733.156 724.317 737.186 724.071 739.582 721.943C741.978 719.814 741.834 716.609 739.26 714.783Z" stroke="#83A15D" stroke-width="4.64722" stroke-linecap="round" stroke-linejoin="round"/>
<path d="M787.128 757.893C783.696 755.458 778.324 755.785 775.129 758.623C771.934 761.461 772.126 765.735 775.558 768.17C778.99 770.605 784.362 770.278 787.557 767.44C790.752 764.602 790.56 760.327 787.128 757.893Z" stroke="#83A15D" stroke-width="4.64722" stroke-linecap="round" stroke-linejoin="round"/>
<path d="M411.299 835.755C399.298 836.079 391.197 844.396 393.27 854.226L396.694 870.462C399.025 881.513 411.392 888.071 424.186 884.974C437.614 881.712 446.622 869.572 444.169 857.946C441.51 845.336 426.707 835.346 411.299 835.755Z" stroke="#83A15D" stroke-width="4.64722" stroke-linecap="round" stroke-linejoin="round"/>
<path d="M455.221 851.804C456.214 856.503 461.626 859.871 467.31 859.326C472.993 858.78 476.796 854.528 475.803 849.829C474.81 845.129 469.398 841.761 463.715 842.307C458.031 842.852 454.229 847.104 455.221 851.804Z" stroke="#83A15D" stroke-width="4.64722" stroke-linecap="round" stroke-linejoin="round"/>
<path d="M454.125 875.092C454.919 878.852 459.249 881.546 463.795 881.11C468.342 880.673 471.384 877.272 470.59 873.512C469.796 869.753 465.466 867.059 460.92 867.495C456.373 867.931 453.331 871.333 454.125 875.092Z" stroke="#83A15D" stroke-width="4.64722" stroke-linecap="round" stroke-linejoin="round"/>
<path d="M439.293 889.334C439.888 892.153 443.136 894.174 446.546 893.847C449.956 893.519 452.238 890.968 451.642 888.149C451.047 885.329 447.799 883.308 444.389 883.636C440.979 883.963 438.697 886.514 439.293 889.334Z" stroke="#83A15D" stroke-width="4.64722" stroke-linecap="round" stroke-linejoin="round"/>
<path d="M437.726 831.805C438.52 835.564 442.85 838.258 447.397 837.822C451.944 837.386 454.986 833.984 454.192 830.224C453.398 826.465 449.068 823.771 444.521 824.207C439.974 824.643 436.932 828.045 437.726 831.805Z" stroke="#83A15D" stroke-width="4.64722" stroke-linecap="round" stroke-linejoin="round"/>
<path d="M40.2342 695.004C45.45 704.768 58.5801 709.435 69.4072 705.399L87.2905 698.733C99.4617 694.197 102.263 682.498 93.4368 672.743C84.1606 662.508 66.1313 658.007 53.3254 662.78C39.4369 667.957 33.5455 682.468 40.2342 695.004Z" stroke="#83A15D" stroke-width="4.64722" stroke-linecap="round" stroke-linejoin="round"/>
<path d="M45.2115 658.247C50.3348 656.338 52.1355 651.16 49.2334 646.683C46.3313 642.206 39.8252 640.125 34.7019 642.034C29.5784 643.944 27.7778 649.121 30.6799 653.598C33.582 658.075 40.088 660.156 45.2115 658.247Z" stroke="#83A15D" stroke-width="4.64722" stroke-linecap="round" stroke-linejoin="round"/>
<path d="M74.0111 651.516C78.1099 649.988 79.5503 645.847 77.2286 642.265C74.9069 638.683 69.7022 637.018 65.6034 638.546C61.505 640.073 60.0642 644.215 62.3859 647.797C64.7076 651.378 69.9126 653.044 74.0111 651.516Z" stroke="#83A15D" stroke-width="4.64722" stroke-linecap="round" stroke-linejoin="round"/>
<path d="M96.0011 658.238C99.0751 657.092 100.156 653.985 98.4143 651.299C96.6728 648.613 92.7692 647.364 89.6953 648.51C86.6214 649.655 85.5408 652.762 87.2822 655.448C89.0235 658.134 92.9272 659.383 96.0011 658.238Z" stroke="#83A15D" stroke-width="4.64722" stroke-linecap="round" stroke-linejoin="round"/>
<path d="M25.9598 677.996C30.0585 676.469 31.4989 672.327 29.1772 668.745C26.8555 665.164 21.6507 663.499 17.552 665.026C13.4533 666.554 12.0127 670.695 14.3345 674.277C16.6562 677.859 21.8611 679.524 25.9598 677.996Z" stroke="#83A15D" stroke-width="4.64722" stroke-linecap="round" stroke-linejoin="round"/>
<path d="M72.9067 73.4291C65.411 70.8309 58.6315 75.2418 57.8277 83.2152L56.5002 96.3849C55.5966 105.348 61.8577 113.271 70.433 113.946C79.4353 114.646 87.5871 107.54 88.5377 98.1097C89.5687 87.8819 82.5286 76.7698 72.9067 73.4291Z" stroke="#83A15D" stroke-width="4.64722" stroke-linecap="round" stroke-linejoin="round"/>
<path d="M95.0581 96.1355C94.6759 99.9268 97.2912 103.75 100.899 104.675C104.508 105.6 107.743 103.276 108.125 99.4848C108.507 95.6934 105.892 91.8701 102.283 90.9452C98.6752 90.0203 95.4403 92.344 95.0581 96.1355Z" stroke="#83A15D" stroke-width="4.64722" stroke-linecap="round" stroke-linejoin="round"/>
<path d="M90.0496 114.341C89.7438 117.374 91.8361 120.433 94.7227 121.173C97.6093 121.913 100.197 120.054 100.503 117.021C100.809 113.988 98.7165 110.929 95.8299 110.189C92.9432 109.449 90.3553 111.308 90.0496 114.341Z" stroke="#83A15D" stroke-width="4.64722" stroke-linecap="round" stroke-linejoin="round"/>
<path d="M78.6959 121.996C78.4666 124.271 80.0358 126.565 82.2007 127.12C84.3659 127.675 86.3068 126.281 86.5361 124.006C86.7654 121.731 85.1963 119.437 83.0311 118.882C80.8662 118.327 78.9252 119.721 78.6959 121.996Z" stroke="#83A15D" stroke-width="4.64722" stroke-linecap="round" stroke-linejoin="round"/>
<path d="M88.6474 75.9553C88.3417 78.9884 90.434 82.0471 93.3206 82.787C96.2073 83.5269 98.7952 81.668 99.1009 78.6349C99.4067 75.6018 97.3144 72.5431 94.4278 71.8032C91.5412 71.0633 88.9531 72.9222 88.6474 75.9553Z" stroke="#83A15D" stroke-width="4.64722" stroke-linecap="round" stroke-linejoin="round"/>
</svg>
