<svg width="336" height="1210" viewBox="0 0 336 1210" fill="none" xmlns="http://www.w3.org/2000/svg">
<path d="M302.349 238.967C310.205 243.392 319.659 240.266 323.368 232.041L329.493 218.456C333.661 209.21 329.096 199.45 319.31 196.811C309.033 194.049 297.04 199.706 292.654 209.434C287.897 219.985 292.265 233.282 302.349 238.967Z" stroke="#83A15D" stroke-width="4.64722" stroke-linecap="round" stroke-linejoin="round"/>
<path d="M284.012 209.848C285.777 205.933 284.047 201.309 280.147 199.521C276.248 197.733 271.656 199.457 269.891 203.372C268.125 207.287 269.856 211.911 273.755 213.699C277.654 215.487 282.247 213.763 284.012 209.848Z" stroke="#83A15D" stroke-width="4.64722" stroke-linecap="round" stroke-linejoin="round"/>
<path d="M296.153 192.001C297.565 188.868 296.181 185.17 293.061 183.739C289.942 182.308 286.268 183.688 284.856 186.82C283.444 189.952 284.828 193.651 287.947 195.082C291.067 196.512 294.741 195.133 296.153 192.001Z" stroke="#83A15D" stroke-width="4.64722" stroke-linecap="round" stroke-linejoin="round"/>
<path d="M312.177 186.657C313.236 184.308 312.198 181.534 309.858 180.461C307.518 179.388 304.763 180.422 303.704 182.771C302.645 185.12 303.683 187.895 306.023 188.968C308.362 190.041 311.118 189.006 312.177 186.657Z" stroke="#83A15D" stroke-width="4.64722" stroke-linecap="round" stroke-linejoin="round"/>
<path d="M284.699 232.435C286.111 229.303 284.727 225.604 281.607 224.174C278.488 222.743 274.814 224.122 273.402 227.255C271.99 230.387 273.374 234.086 276.493 235.516C279.613 236.947 283.287 235.568 284.699 232.435Z" stroke="#83A15D" stroke-width="4.64722" stroke-linecap="round" stroke-linejoin="round"/>
<path d="M182.954 505.339C188.435 519.423 203.987 525.43 217.508 518.725L239.839 507.65C255.038 500.113 259.476 482.622 249.605 468.797C239.229 454.293 217.705 448.863 201.714 456.794C184.371 465.394 175.927 487.255 182.954 505.339Z" stroke="#83A15D" stroke-width="4.64722" stroke-linecap="round" stroke-linejoin="round"/>
<path d="M190.017 447.941C196.455 444.748 199.118 436.919 195.965 430.454C192.811 423.989 185.036 421.337 178.597 424.53C172.159 427.723 169.496 435.552 172.65 442.017C175.803 448.481 183.579 451.134 190.017 447.941Z" stroke="#83A15D" stroke-width="4.64722" stroke-linecap="round" stroke-linejoin="round"/>
<path d="M224.573 437.819C229.724 435.265 231.854 429.002 229.331 423.83C226.809 418.658 220.588 416.537 215.437 419.091C210.287 421.645 208.157 427.908 210.679 433.08C213.202 438.252 219.423 440.374 224.573 437.819Z" stroke="#83A15D" stroke-width="4.64722" stroke-linecap="round" stroke-linejoin="round"/>
<path d="M250.968 448.045C254.83 446.129 256.428 441.431 254.536 437.553C252.644 433.674 247.978 432.082 244.116 433.998C240.253 435.914 238.655 440.611 240.547 444.49C242.439 448.369 247.105 449.96 250.968 448.045Z" stroke="#83A15D" stroke-width="4.64722" stroke-linecap="round" stroke-linejoin="round"/>
<path d="M167.081 477.937C172.232 475.382 174.362 469.119 171.839 463.947C169.317 458.776 163.096 456.654 157.945 459.208C152.795 461.762 150.665 468.026 153.187 473.197C155.71 478.369 161.931 480.491 167.081 477.937Z" stroke="#83A15D" stroke-width="4.64722" stroke-linecap="round" stroke-linejoin="round"/>
<path d="M23.2495 161.04C14.7535 161.558 8.77592 168.815 9.94811 177.155L11.8842 190.932C13.2019 200.308 21.7507 205.65 30.8905 202.751C40.4831 199.698 47.2157 189.164 45.8293 179.299C44.3257 168.6 34.1569 160.38 23.2495 161.04Z" stroke="#83A15D" stroke-width="4.64722" stroke-linecap="round" stroke-linejoin="round"/>
<path d="M52.5491 174.625C53.1071 178.596 56.8119 181.346 60.8239 180.769C64.836 180.192 67.636 176.505 67.078 172.535C66.52 168.564 62.8153 165.813 58.8032 166.391C54.7912 166.968 51.9911 170.655 52.5491 174.625Z" stroke="#83A15D" stroke-width="4.64722" stroke-linecap="round" stroke-linejoin="round"/>
<path d="M51.8425 194.78C52.2889 197.956 55.2527 200.157 58.4624 199.695C61.672 199.233 63.9121 196.284 63.4656 193.107C63.0193 189.931 60.0555 187.731 56.8458 188.192C53.6362 188.654 51.3962 191.604 51.8425 194.78Z" stroke="#83A15D" stroke-width="4.64722" stroke-linecap="round" stroke-linejoin="round"/>
<path d="M41.7337 207.09C42.0685 209.472 44.2915 211.123 46.6986 210.777C49.1061 210.43 50.786 208.218 50.4512 205.836C50.1164 203.454 47.8936 201.803 45.4862 202.15C43.0791 202.496 41.399 204.708 41.7337 207.09Z" stroke="#83A15D" stroke-width="4.64722" stroke-linecap="round" stroke-linejoin="round"/>
<path d="M40.6172 157.247C41.0636 160.423 44.0275 162.624 47.2372 162.162C50.4468 161.7 52.6868 158.751 52.2404 155.574C51.794 152.398 48.8302 150.198 45.6206 150.659C42.411 151.121 40.1708 154.071 40.6172 157.247Z" stroke="#83A15D" stroke-width="4.64722" stroke-linecap="round" stroke-linejoin="round"/>
<path d="M-11.2057 337.582C-14.7745 340.662 -14.9485 345.903 -11.6039 349.229L-6.07957 354.724C-2.31976 358.463 3.25951 357.978 6.30463 353.62C9.49742 349.042 8.89293 342.086 4.93706 338.152C0.646762 333.885 -6.62205 333.63 -11.2057 337.582Z" stroke="#83A15D" stroke-width="4.64722" stroke-linecap="round" stroke-linejoin="round"/>
<path d="M6.32074 333.792C7.91313 335.375 10.479 335.36 12.0518 333.757C13.6246 332.153 13.6087 329.57 12.0163 327.986C10.4238 326.402 7.85796 326.418 6.28518 328.021C4.7124 329.625 4.7283 332.208 6.32074 333.792Z" stroke="#83A15D" stroke-width="4.64722" stroke-linecap="round" stroke-linejoin="round"/>
<path d="M12.8306 343.019C14.1046 344.286 16.1573 344.273 17.4155 342.991C18.6737 341.708 18.661 339.641 17.3871 338.374C16.1132 337.108 14.0604 337.12 12.8022 338.403C11.544 339.685 11.5568 341.752 12.8306 343.019Z" stroke="#83A15D" stroke-width="4.64722" stroke-linecap="round" stroke-linejoin="round"/>
<path d="M12.541 351.908C13.4964 352.858 15.036 352.848 15.9797 351.886C16.9234 350.924 16.9138 349.374 15.9584 348.424C15.003 347.474 13.4635 347.483 12.5197 348.445C11.5761 349.407 11.5856 350.957 12.541 351.908Z" stroke="#83A15D" stroke-width="4.64722" stroke-linecap="round" stroke-linejoin="round"/>
<path d="M-4.82088 330.052C-3.54696 331.319 -1.4942 331.307 -0.23597 330.024C1.02226 328.741 1.00953 326.675 -0.264391 325.408C-1.53831 324.141 -3.59102 324.153 -4.84925 325.436C-6.10747 326.718 -6.09481 328.785 -4.82088 330.052Z" stroke="#83A15D" stroke-width="4.64722" stroke-linecap="round" stroke-linejoin="round"/>
<path d="M298.349 493.703C306.205 498.128 315.659 495.002 319.368 486.777L325.493 473.192C329.661 463.946 325.096 454.186 315.31 451.546C305.033 448.784 293.04 454.442 288.654 464.17C283.897 474.721 288.265 488.018 298.349 493.703Z" stroke="#83A15D" stroke-width="4.64722" stroke-linecap="round" stroke-linejoin="round"/>
<path d="M280.012 464.584C281.777 460.669 280.047 456.045 276.147 454.257C272.248 452.468 267.656 454.193 265.891 458.108C264.125 462.023 265.856 466.647 269.755 468.435C273.654 470.223 278.247 468.499 280.012 464.584Z" stroke="#83A15D" stroke-width="4.64722" stroke-linecap="round" stroke-linejoin="round"/>
<path d="M292.153 446.737C293.565 443.604 292.181 439.905 289.061 438.475C285.942 437.044 282.268 438.423 280.856 441.556C279.444 444.688 280.828 448.387 283.947 449.817C287.067 451.248 290.741 449.868 292.153 446.737Z" stroke="#83A15D" stroke-width="4.64722" stroke-linecap="round" stroke-linejoin="round"/>
<path d="M308.177 441.393C309.236 439.044 308.198 436.269 305.858 435.197C303.518 434.123 300.763 435.158 299.704 437.507C298.645 439.856 299.683 442.63 302.023 443.703C304.362 444.776 307.118 443.742 308.177 441.393Z" stroke="#83A15D" stroke-width="4.64722" stroke-linecap="round" stroke-linejoin="round"/>
<path d="M280.699 487.171C282.111 484.039 280.727 480.34 277.607 478.91C274.488 477.479 270.814 478.858 269.402 481.99C267.99 485.123 269.374 488.821 272.493 490.252C275.613 491.683 279.287 490.303 280.699 487.171Z" stroke="#83A15D" stroke-width="4.64722" stroke-linecap="round" stroke-linejoin="round"/>
<path d="M178.954 760.075C184.435 774.159 199.987 780.166 213.508 773.461L235.839 762.386C251.038 754.849 255.476 737.358 245.605 723.533C235.229 709.028 213.705 703.599 197.714 711.529C180.371 720.13 171.927 741.991 178.954 760.075Z" stroke="#83A15D" stroke-width="4.64722" stroke-linecap="round" stroke-linejoin="round"/>
<path d="M186.017 702.676C192.455 699.483 195.118 691.654 191.965 685.19C188.811 678.725 181.036 676.073 174.597 679.266C168.159 682.459 165.496 690.288 168.65 696.753C171.803 703.217 179.579 705.869 186.017 702.676Z" stroke="#83A15D" stroke-width="4.64722" stroke-linecap="round" stroke-linejoin="round"/>
<path d="M220.573 692.555C225.724 690.001 227.854 683.738 225.331 678.566C222.809 673.394 216.588 671.272 211.437 673.827C206.287 676.381 204.157 682.644 206.679 687.816C209.202 692.988 215.423 695.109 220.573 692.555Z" stroke="#83A15D" stroke-width="4.64722" stroke-linecap="round" stroke-linejoin="round"/>
<path d="M246.968 702.78C250.83 700.865 252.428 696.167 250.536 692.288C248.644 688.409 243.978 686.818 240.116 688.734C236.253 690.65 234.655 695.347 236.547 699.226C238.439 703.105 243.105 704.696 246.968 702.78Z" stroke="#83A15D" stroke-width="4.64722" stroke-linecap="round" stroke-linejoin="round"/>
<path d="M163.081 732.673C168.232 730.118 170.362 723.855 167.839 718.683C165.317 713.511 159.096 711.39 153.945 713.944C148.795 716.498 146.665 722.761 149.187 727.933C151.71 733.105 157.931 735.227 163.081 732.673Z" stroke="#83A15D" stroke-width="4.64722" stroke-linecap="round" stroke-linejoin="round"/>
<path d="M286.796 333.631C292.957 327.735 292.873 318.317 286.627 312.697L276.312 303.415C269.292 297.098 259.331 298.546 254.204 306.679C248.829 315.222 250.439 327.636 257.826 334.282C265.837 341.491 278.881 341.195 286.796 333.631Z" stroke="#83A15D" stroke-width="4.64722" stroke-linecap="round" stroke-linejoin="round"/>
<path d="M255.667 342.254C252.694 339.578 248.097 339.873 245.4 342.911C242.703 345.95 242.927 350.583 245.9 353.258C248.874 355.934 253.471 355.64 256.168 352.601C258.865 349.562 258.641 344.929 255.667 342.254Z" stroke="#83A15D" stroke-width="4.64722" stroke-linecap="round" stroke-linejoin="round"/>
<path d="M243.309 326.381C240.93 324.241 237.252 324.476 235.095 326.907C232.937 329.338 233.116 333.044 235.495 335.185C237.874 337.325 241.551 337.09 243.709 334.659C245.867 332.228 245.687 328.522 243.309 326.381Z" stroke="#83A15D" stroke-width="4.64722" stroke-linecap="round" stroke-linejoin="round"/>
<path d="M243.161 310.407C241.377 308.801 238.618 308.978 237 310.801C235.382 312.625 235.516 315.404 237.3 317.01C239.084 318.615 241.842 318.438 243.461 316.615C245.079 314.792 244.945 312.012 243.161 310.407Z" stroke="#83A15D" stroke-width="4.64722" stroke-linecap="round" stroke-linejoin="round"/>
<path d="M275.914 347.799C273.535 345.658 269.858 345.894 267.7 348.325C265.542 350.756 265.722 354.462 268.1 356.603C270.479 358.743 274.157 358.508 276.314 356.077C278.472 353.646 278.293 349.939 275.914 347.799Z" stroke="#83A15D" stroke-width="4.64722" stroke-linecap="round" stroke-linejoin="round"/>
<path d="M19.2495 415.776C10.7535 416.294 4.77593 423.551 5.94811 431.891L7.88423 445.667C9.20192 455.043 17.7507 460.386 26.8905 457.486C36.4831 454.434 43.2157 443.9 41.8293 434.035C40.3257 423.336 30.1569 415.116 19.2495 415.776Z" stroke="#83A15D" stroke-width="4.64722" stroke-linecap="round" stroke-linejoin="round"/>
<path d="M48.5491 429.361C49.1071 433.331 52.8119 436.082 56.8239 435.505C60.836 434.928 63.636 431.241 63.078 427.271C62.52 423.3 58.8153 420.549 54.8032 421.127C50.7912 421.704 47.9911 425.39 48.5491 429.361Z" stroke="#83A15D" stroke-width="4.64722" stroke-linecap="round" stroke-linejoin="round"/>
<path d="M47.8425 449.516C48.2889 452.692 51.2527 454.893 54.4624 454.431C57.672 453.969 59.9121 451.02 59.4656 447.843C59.0193 444.667 56.0555 442.466 52.8458 442.928C49.6362 443.39 47.3962 446.34 47.8425 449.516Z" stroke="#83A15D" stroke-width="4.64722" stroke-linecap="round" stroke-linejoin="round"/>
<path d="M37.7337 461.826C38.0685 464.208 40.2915 465.859 42.6986 465.512C45.1061 465.166 46.786 462.954 46.4512 460.572C46.1164 458.19 43.8936 456.539 41.4862 456.885C39.0791 457.232 37.399 459.444 37.7337 461.826Z" stroke="#83A15D" stroke-width="4.64722" stroke-linecap="round" stroke-linejoin="round"/>
<path d="M36.6172 411.983C37.0636 415.159 40.0275 417.36 43.2372 416.898C46.4468 416.436 48.6868 413.487 48.2404 410.31C47.794 407.134 44.8302 404.933 41.6206 405.395C38.411 405.857 36.1708 408.806 36.6172 411.983Z" stroke="#83A15D" stroke-width="4.64722" stroke-linecap="round" stroke-linejoin="round"/>
<path d="M-15.2057 592.318C-18.7745 595.398 -18.9485 600.639 -15.6039 603.965L-10.0796 609.459C-6.31976 613.199 -0.740493 612.714 2.30463 608.356C5.49742 603.778 4.89293 596.822 0.937058 592.888C-3.35324 588.621 -10.6221 588.366 -15.2057 592.318Z" stroke="#83A15D" stroke-width="4.64722" stroke-linecap="round" stroke-linejoin="round"/>
<path d="M2.32074 588.528C3.91313 590.111 6.47903 590.096 8.05181 588.492C9.62459 586.889 9.60867 584.306 8.01628 582.722C6.42385 581.138 3.85796 581.154 2.28518 582.757C0.712399 584.36 0.728305 586.944 2.32074 588.528Z" stroke="#83A15D" stroke-width="4.64722" stroke-linecap="round" stroke-linejoin="round"/>
<path d="M8.83063 597.755C10.1046 599.022 12.1573 599.009 13.4155 597.727C14.6737 596.444 14.661 594.377 13.3871 593.11C12.1132 591.843 10.0604 591.856 8.80221 593.139C7.54399 594.421 7.55679 596.488 8.83063 597.755Z" stroke="#83A15D" stroke-width="4.64722" stroke-linecap="round" stroke-linejoin="round"/>
<path d="M8.54102 606.643C9.49643 607.594 11.036 607.584 11.9797 606.622C12.9234 605.66 12.9138 604.11 11.9584 603.16C11.003 602.21 9.46346 602.219 8.5197 603.181C7.57607 604.143 7.58561 605.693 8.54102 606.643Z" stroke="#83A15D" stroke-width="4.64722" stroke-linecap="round" stroke-linejoin="round"/>
<path d="M-8.82088 584.788C-7.54696 586.055 -5.4942 586.042 -4.23597 584.76C-2.97774 583.477 -2.99047 581.41 -4.26439 580.143C-5.53831 578.877 -7.59102 578.889 -8.84925 580.172C-10.1075 581.454 -10.0948 583.521 -8.82088 584.788Z" stroke="#83A15D" stroke-width="4.64722" stroke-linecap="round" stroke-linejoin="round"/>
<path d="M296.349 804.823C304.205 809.248 313.659 806.122 317.368 797.897L323.493 784.312C327.661 775.066 323.096 765.306 313.31 762.667C303.033 759.905 291.04 765.562 286.654 775.29C281.897 785.841 286.265 799.138 296.349 804.823Z" stroke="#83A15D" stroke-width="4.64722" stroke-linecap="round" stroke-linejoin="round"/>
<path d="M278.012 775.704C279.777 771.789 278.047 767.165 274.147 765.377C270.248 763.588 265.656 765.313 263.891 769.228C262.125 773.143 263.856 777.767 267.755 779.555C271.654 781.343 276.247 779.619 278.012 775.704Z" stroke="#83A15D" stroke-width="4.64722" stroke-linecap="round" stroke-linejoin="round"/>
<path d="M290.153 757.857C291.565 754.724 290.181 751.026 287.061 749.595C283.942 748.164 280.268 749.544 278.856 752.676C277.444 755.808 278.828 759.507 281.947 760.937C285.067 762.368 288.741 760.989 290.153 757.857Z" stroke="#83A15D" stroke-width="4.64722" stroke-linecap="round" stroke-linejoin="round"/>
<path d="M306.177 752.513C307.236 750.164 306.198 747.39 303.858 746.317C301.518 745.244 298.763 746.278 297.704 748.627C296.645 750.976 297.683 753.75 300.023 754.824C302.362 755.896 305.118 754.862 306.177 752.513Z" stroke="#83A15D" stroke-width="4.64722" stroke-linecap="round" stroke-linejoin="round"/>
<path d="M278.699 798.291C280.111 795.159 278.727 791.46 275.607 790.03C272.488 788.599 268.814 789.978 267.402 793.11C265.99 796.243 267.374 799.941 270.493 801.372C273.613 802.803 277.287 801.423 278.699 798.291Z" stroke="#83A15D" stroke-width="4.64722" stroke-linecap="round" stroke-linejoin="round"/>
<path d="M176.954 1071.2C182.435 1085.28 197.987 1091.29 211.508 1084.58L233.839 1073.51C249.038 1065.97 253.476 1048.48 243.605 1034.65C233.229 1020.15 211.705 1014.72 195.714 1022.65C178.371 1031.25 169.927 1053.11 176.954 1071.2Z" stroke="#83A15D" stroke-width="4.64722" stroke-linecap="round" stroke-linejoin="round"/>
<path d="M184.017 1013.8C190.455 1010.6 193.118 1002.77 189.965 996.31C186.811 989.845 179.036 987.193 172.597 990.386C166.159 993.579 163.496 1001.41 166.65 1007.87C169.803 1014.34 177.579 1016.99 184.017 1013.8Z" stroke="#83A15D" stroke-width="4.64722" stroke-linecap="round" stroke-linejoin="round"/>
<path d="M218.573 1003.68C223.724 1001.12 225.854 994.858 223.331 989.686C220.809 984.514 214.588 982.392 209.437 984.947C204.287 987.501 202.157 993.764 204.679 998.936C207.202 1004.11 213.423 1006.23 218.573 1003.68Z" stroke="#83A15D" stroke-width="4.64722" stroke-linecap="round" stroke-linejoin="round"/>
<path d="M244.968 1013.9C248.83 1011.98 250.428 1007.29 248.536 1003.41C246.644 999.529 241.978 997.938 238.116 999.854C234.253 1001.77 232.655 1006.47 234.547 1010.35C236.439 1014.22 241.105 1015.82 244.968 1013.9Z" stroke="#83A15D" stroke-width="4.64722" stroke-linecap="round" stroke-linejoin="round"/>
<path d="M161.081 1043.79C166.232 1041.24 168.362 1034.97 165.839 1029.8C163.317 1024.63 157.096 1022.51 151.945 1025.06C146.795 1027.62 144.665 1033.88 147.187 1039.05C149.71 1044.23 155.931 1046.35 161.081 1043.79Z" stroke="#83A15D" stroke-width="4.64722" stroke-linecap="round" stroke-linejoin="round"/>
<path d="M284.796 644.751C290.957 638.855 290.873 629.437 284.627 623.817L274.312 614.535C267.292 608.218 257.331 609.666 252.204 617.799C246.829 626.342 248.439 638.756 255.826 645.402C263.837 652.611 276.881 652.315 284.796 644.751Z" stroke="#83A15D" stroke-width="4.64722" stroke-linecap="round" stroke-linejoin="round"/>
<path d="M253.667 653.374C250.694 650.698 246.097 650.993 243.4 654.031C240.703 657.07 240.927 661.703 243.9 664.378C246.874 667.054 251.471 666.76 254.168 663.721C256.865 660.682 256.641 656.05 253.667 653.374Z" stroke="#83A15D" stroke-width="4.64722" stroke-linecap="round" stroke-linejoin="round"/>
<path d="M241.309 637.501C238.93 635.361 235.252 635.596 233.095 638.027C230.937 640.458 231.116 644.164 233.495 646.305C235.874 648.445 239.551 648.21 241.709 645.779C243.867 643.348 243.687 639.642 241.309 637.501Z" stroke="#83A15D" stroke-width="4.64722" stroke-linecap="round" stroke-linejoin="round"/>
<path d="M241.161 621.527C239.377 619.921 236.618 620.098 235 621.921C233.382 623.745 233.516 626.524 235.3 628.13C237.084 629.735 239.842 629.558 241.461 627.735C243.079 625.912 242.945 623.132 241.161 621.527Z" stroke="#83A15D" stroke-width="4.64722" stroke-linecap="round" stroke-linejoin="round"/>
<path d="M273.914 658.919C271.535 656.779 267.858 657.014 265.7 659.445C263.542 661.876 263.722 665.582 266.1 667.723C268.479 669.863 272.157 669.628 274.314 667.197C276.472 664.766 276.293 661.06 273.914 658.919Z" stroke="#83A15D" stroke-width="4.64722" stroke-linecap="round" stroke-linejoin="round"/>
<path d="M17.2495 726.896C8.75346 727.414 2.77593 734.671 3.94811 743.011L5.88423 756.788C7.20192 766.163 15.7507 771.506 24.8905 768.607C34.4831 765.554 41.2157 755.02 39.8293 745.155C38.3257 734.456 28.1569 726.236 17.2495 726.896Z" stroke="#83A15D" stroke-width="4.64722" stroke-linecap="round" stroke-linejoin="round"/>
<path d="M46.5491 740.481C47.1071 744.452 50.8119 747.202 54.8239 746.625C58.836 746.048 61.636 742.361 61.078 738.391C60.52 734.42 56.8153 731.669 52.8032 732.247C48.7912 732.824 45.9911 736.511 46.5491 740.481Z" stroke="#83A15D" stroke-width="4.64722" stroke-linecap="round" stroke-linejoin="round"/>
<path d="M45.8425 760.636C46.2889 763.812 49.2527 766.013 52.4624 765.551C55.672 765.089 57.9121 762.14 57.4656 758.963C57.0193 755.787 54.0555 753.586 50.8458 754.048C47.6362 754.51 45.3962 757.46 45.8425 760.636Z" stroke="#83A15D" stroke-width="4.64722" stroke-linecap="round" stroke-linejoin="round"/>
<path d="M35.7337 772.946C36.0685 775.328 38.2915 776.979 40.6986 776.633C43.1061 776.286 44.786 774.074 44.4512 771.692C44.1164 769.31 41.8936 767.659 39.4862 768.006C37.0791 768.352 35.399 770.564 35.7337 772.946Z" stroke="#83A15D" stroke-width="4.64722" stroke-linecap="round" stroke-linejoin="round"/>
<path d="M34.6172 723.103C35.0636 726.279 38.0275 728.48 41.2372 728.018C44.4468 727.556 46.6868 724.607 46.2404 721.43C45.794 718.254 42.8302 716.053 39.6206 716.515C36.411 716.977 34.1708 719.926 34.6172 723.103Z" stroke="#83A15D" stroke-width="4.64722" stroke-linecap="round" stroke-linejoin="round"/>
<path d="M-17.2057 903.438C-20.7745 906.518 -20.9485 911.759 -17.6039 915.085L-12.0796 920.579C-8.31976 924.319 -2.74049 923.834 0.304632 919.476C3.49742 914.898 2.89293 907.942 -1.06294 904.008C-5.35324 899.741 -12.6221 899.486 -17.2057 903.438Z" stroke="#83A15D" stroke-width="4.64722" stroke-linecap="round" stroke-linejoin="round"/>
<path d="M0.320739 899.648C1.91313 901.231 4.47903 901.216 6.05181 899.612C7.62459 898.009 7.60867 895.426 6.01628 893.842C4.42385 892.258 1.85796 892.274 0.285178 893.877C-1.2876 895.481 -1.2717 898.064 0.320739 899.648Z" stroke="#83A15D" stroke-width="4.64722" stroke-linecap="round" stroke-linejoin="round"/>
<path d="M6.83063 908.875C8.10459 910.142 10.1573 910.129 11.4155 908.847C12.6737 907.564 12.661 905.497 11.3871 904.23C10.1132 902.964 8.06044 902.976 6.80221 904.259C5.54399 905.541 5.55679 907.608 6.83063 908.875Z" stroke="#83A15D" stroke-width="4.64722" stroke-linecap="round" stroke-linejoin="round"/>
<path d="M6.54102 917.764C7.49643 918.714 9.03602 918.704 9.97966 917.742C10.9234 916.78 10.9138 915.23 9.9584 914.28C9.00299 913.33 7.46346 913.339 6.5197 914.301C5.57607 915.263 5.58561 916.813 6.54102 917.764Z" stroke="#83A15D" stroke-width="4.64722" stroke-linecap="round" stroke-linejoin="round"/>
<path d="M324.349 1090.77C332.205 1095.2 341.659 1092.07 345.368 1083.85L351.493 1070.26C355.661 1061.01 351.096 1051.25 341.31 1048.62C331.033 1045.85 319.04 1051.51 314.654 1061.24C309.897 1071.79 314.265 1085.09 324.349 1090.77Z" stroke="#83A15D" stroke-width="4.64722" stroke-linecap="round" stroke-linejoin="round"/>
<path d="M306.012 1061.65C307.777 1057.74 306.047 1053.11 302.147 1051.33C298.248 1049.54 293.656 1051.26 291.891 1055.18C290.125 1059.09 291.856 1063.72 295.755 1065.5C299.654 1067.29 304.247 1065.57 306.012 1061.65Z" stroke="#83A15D" stroke-width="4.64722" stroke-linecap="round" stroke-linejoin="round"/>
<path d="M318.153 1043.81C319.565 1040.67 318.181 1036.97 315.061 1035.54C311.942 1034.11 308.268 1035.49 306.856 1038.62C305.444 1041.76 306.828 1045.46 309.947 1046.89C313.067 1048.32 316.741 1046.94 318.153 1043.81Z" stroke="#83A15D" stroke-width="4.64722" stroke-linecap="round" stroke-linejoin="round"/>
<path d="M334.177 1038.46C335.236 1036.11 334.198 1033.34 331.858 1032.27C329.518 1031.19 326.763 1032.23 325.704 1034.58C324.645 1036.92 325.683 1039.7 328.023 1040.77C330.362 1041.85 333.118 1040.81 334.177 1038.46Z" stroke="#83A15D" stroke-width="4.64722" stroke-linecap="round" stroke-linejoin="round"/>
<path d="M306.699 1084.24C308.111 1081.11 306.727 1077.41 303.607 1075.98C300.488 1074.55 296.814 1075.93 295.402 1079.06C293.99 1082.19 295.374 1085.89 298.493 1087.32C301.613 1088.75 305.287 1087.37 306.699 1084.24Z" stroke="#83A15D" stroke-width="4.64722" stroke-linecap="round" stroke-linejoin="round"/>
<path d="M312.796 930.699C318.957 924.804 318.873 915.385 312.627 909.766L302.312 900.484C295.292 894.167 285.331 895.614 280.204 903.747C274.829 912.291 276.439 924.704 283.826 931.351C291.837 938.559 304.881 938.263 312.796 930.699Z" stroke="#83A15D" stroke-width="4.64722" stroke-linecap="round" stroke-linejoin="round"/>
<path d="M281.667 939.322C278.694 936.647 274.097 936.941 271.4 939.98C268.703 943.019 268.927 947.651 271.9 950.327C274.874 953.003 279.471 952.708 282.168 949.669C284.865 946.631 284.641 941.998 281.667 939.322Z" stroke="#83A15D" stroke-width="4.64722" stroke-linecap="round" stroke-linejoin="round"/>
<path d="M269.309 923.45C266.93 921.309 263.252 921.545 261.095 923.976C258.937 926.407 259.116 930.113 261.495 932.253C263.874 934.394 267.551 934.158 269.709 931.727C271.867 929.296 271.687 925.59 269.309 923.45Z" stroke="#83A15D" stroke-width="4.64722" stroke-linecap="round" stroke-linejoin="round"/>
<path d="M269.161 907.475C267.377 905.87 264.618 906.047 263 907.87C261.382 909.693 261.516 912.473 263.3 914.078C265.084 915.683 267.842 915.507 269.461 913.683C271.079 911.86 270.945 909.081 269.161 907.475Z" stroke="#83A15D" stroke-width="4.64722" stroke-linecap="round" stroke-linejoin="round"/>
<path d="M301.914 944.868C299.535 942.727 295.858 942.963 293.7 945.394C291.542 947.825 291.722 951.531 294.1 953.671C296.479 955.812 300.157 955.576 302.314 953.145C304.472 950.714 304.293 947.008 301.914 944.868Z" stroke="#83A15D" stroke-width="4.64722" stroke-linecap="round" stroke-linejoin="round"/>
<path d="M45.2495 1012.84C36.7535 1013.36 30.7759 1020.62 31.9481 1028.96L33.8842 1042.74C35.2019 1052.11 43.7507 1057.45 52.8905 1054.56C62.4831 1051.5 69.2157 1040.97 67.8293 1031.1C66.3257 1020.4 56.1569 1012.18 45.2495 1012.84Z" stroke="#83A15D" stroke-width="4.64722" stroke-linecap="round" stroke-linejoin="round"/>
<path d="M74.5491 1026.43C75.1071 1030.4 78.8119 1033.15 82.8239 1032.57C86.836 1032 89.636 1028.31 89.078 1024.34C88.52 1020.37 84.8153 1017.62 80.8032 1018.2C76.7912 1018.77 73.9911 1022.46 74.5491 1026.43Z" stroke="#83A15D" stroke-width="4.64722" stroke-linecap="round" stroke-linejoin="round"/>
<path d="M73.8425 1046.58C74.2889 1049.76 77.2527 1051.96 80.4624 1051.5C83.672 1051.04 85.9121 1048.09 85.4656 1044.91C85.0193 1041.74 82.0555 1039.53 78.8458 1040C75.6362 1040.46 73.3962 1043.41 73.8425 1046.58Z" stroke="#83A15D" stroke-width="4.64722" stroke-linecap="round" stroke-linejoin="round"/>
<path d="M63.7337 1058.89C64.0685 1061.28 66.2915 1062.93 68.6986 1062.58C71.1061 1062.23 72.786 1060.02 72.4512 1057.64C72.1164 1055.26 69.8936 1053.61 67.4862 1053.95C65.0791 1054.3 63.399 1056.51 63.7337 1058.89Z" stroke="#83A15D" stroke-width="4.64722" stroke-linecap="round" stroke-linejoin="round"/>
<path d="M62.6172 1009.05C63.0636 1012.23 66.0275 1014.43 69.2372 1013.97C72.4468 1013.5 74.6868 1010.56 74.2404 1007.38C73.794 1004.2 70.8302 1002 67.6206 1002.46C64.411 1002.93 62.1708 1005.87 62.6172 1009.05Z" stroke="#83A15D" stroke-width="4.64722" stroke-linecap="round" stroke-linejoin="round"/>
<path d="M7.79434 1171.26C4.22554 1174.34 4.05148 1179.58 7.39609 1182.91L12.9204 1188.4C16.6802 1192.14 22.2595 1191.66 25.3046 1187.3C28.4974 1182.72 27.8929 1175.77 23.9371 1171.83C19.6468 1167.57 12.3779 1167.31 7.79434 1171.26Z" stroke="#83A15D" stroke-width="4.64722" stroke-linecap="round" stroke-linejoin="round"/>
<path d="M25.3207 1167.47C26.9131 1169.06 29.479 1169.04 31.0518 1167.44C32.6246 1165.83 32.6087 1163.25 31.0163 1161.67C29.4238 1160.08 26.858 1160.1 25.2852 1161.7C23.7124 1163.31 23.7283 1165.89 25.3207 1167.47Z" stroke="#83A15D" stroke-width="4.64722" stroke-linecap="round" stroke-linejoin="round"/>
<path d="M31.8306 1176.7C33.1046 1177.97 35.1573 1177.95 36.4155 1176.67C37.6737 1175.39 37.661 1173.32 36.3871 1172.06C35.1132 1170.79 33.0604 1170.8 31.8022 1172.08C30.544 1173.37 30.5568 1175.43 31.8306 1176.7Z" stroke="#83A15D" stroke-width="4.64722" stroke-linecap="round" stroke-linejoin="round"/>
<path d="M31.541 1185.59C32.4964 1186.54 34.036 1186.53 34.9797 1185.57C35.9234 1184.61 35.9138 1183.06 34.9584 1182.11C34.003 1181.15 32.4635 1181.16 31.5197 1182.13C30.5761 1183.09 30.5856 1184.64 31.541 1185.59Z" stroke="#83A15D" stroke-width="4.64722" stroke-linecap="round" stroke-linejoin="round"/>
<path d="M14.1791 1163.73C15.453 1165 17.5058 1164.99 18.764 1163.71C20.0223 1162.42 20.0095 1160.36 18.7356 1159.09C17.4617 1157.82 15.409 1157.83 14.1508 1159.12C12.8925 1160.4 12.9052 1162.47 14.1791 1163.73Z" stroke="#83A15D" stroke-width="4.64722" stroke-linecap="round" stroke-linejoin="round"/>
<path d="M282.952 1173.55C289.114 1167.66 289.03 1158.24 282.784 1152.62L272.469 1143.34C265.449 1137.02 255.488 1138.47 250.361 1146.6C244.986 1155.14 246.596 1167.56 253.982 1174.2C261.993 1181.41 275.038 1181.12 282.952 1173.55Z" stroke="#83A15D" stroke-width="4.64722" stroke-linecap="round" stroke-linejoin="round"/>
<path d="M251.824 1182.17C248.851 1179.5 244.254 1179.79 241.557 1182.83C238.859 1185.87 239.084 1190.5 242.057 1193.18C245.031 1195.85 249.627 1195.56 252.325 1192.52C255.022 1189.48 254.798 1184.85 251.824 1182.17Z" stroke="#83A15D" stroke-width="4.64722" stroke-linecap="round" stroke-linejoin="round"/>
<path d="M239.466 1166.3C237.087 1164.16 233.409 1164.4 231.252 1166.83C229.094 1169.26 229.273 1172.96 231.652 1175.11C234.031 1177.25 237.708 1177.01 239.866 1174.58C242.024 1172.15 241.844 1168.44 239.466 1166.3Z" stroke="#83A15D" stroke-width="4.64722" stroke-linecap="round" stroke-linejoin="round"/>
<path d="M239.317 1150.33C237.533 1148.72 234.775 1148.9 233.157 1150.72C231.539 1152.55 231.673 1155.32 233.457 1156.93C235.241 1158.54 237.999 1158.36 239.618 1156.54C241.236 1154.71 241.102 1151.93 239.317 1150.33Z" stroke="#83A15D" stroke-width="4.64722" stroke-linecap="round" stroke-linejoin="round"/>
<path d="M272.071 1187.72C269.692 1185.58 266.015 1185.81 263.857 1188.25C261.699 1190.68 261.879 1194.38 264.257 1196.52C266.636 1198.66 270.314 1198.43 272.471 1196C274.629 1193.57 274.45 1189.86 272.071 1187.72Z" stroke="#83A15D" stroke-width="4.64722" stroke-linecap="round" stroke-linejoin="round"/>
<path d="M267.075 97.6025C273.237 91.7072 273.152 82.2889 266.907 76.6693L256.592 67.3873C249.571 61.0701 239.61 62.5176 234.484 70.6507C229.109 79.194 230.719 91.6075 238.105 98.2542C246.116 105.463 259.161 105.167 267.075 97.6025Z" stroke="#83A15D" stroke-width="4.64722" stroke-linecap="round" stroke-linejoin="round"/>
<path d="M235.947 106.226C232.973 103.55 228.376 103.845 225.679 106.883C222.982 109.922 223.206 114.555 226.18 117.23C229.153 119.906 233.75 119.612 236.447 116.573C239.144 113.534 238.92 108.901 235.947 106.226Z" stroke="#83A15D" stroke-width="4.64722" stroke-linecap="round" stroke-linejoin="round"/>
<path d="M223.588 90.3532C221.209 88.2126 217.532 88.4482 215.374 90.8792C213.217 93.3103 213.396 97.0162 215.775 99.1568C218.153 101.297 221.831 101.062 223.989 98.6307C226.146 96.1996 225.967 92.4935 223.588 90.3532Z" stroke="#83A15D" stroke-width="4.64722" stroke-linecap="round" stroke-linejoin="round"/>
<path d="M223.44 74.3787C221.656 72.7733 218.898 72.95 217.28 74.7732C215.661 76.5967 215.796 79.3762 217.58 80.9815C219.364 82.5868 222.122 82.4103 223.74 80.5868C225.359 78.7636 225.224 75.984 223.44 74.3787Z" stroke="#83A15D" stroke-width="4.64722" stroke-linecap="round" stroke-linejoin="round"/>
<path d="M256.194 111.771C253.815 109.63 250.137 109.866 247.98 112.297C245.822 114.728 246.001 118.434 248.38 120.575C250.759 122.715 254.436 122.48 256.594 120.049C258.752 117.618 258.572 113.911 256.194 111.771Z" stroke="#83A15D" stroke-width="4.64722" stroke-linecap="round" stroke-linejoin="round"/>
</svg>
